<svg width="660" height="460" viewBox="0 0 660 460" fill="none" xmlns="http://www.w3.org/2000/svg">
<path d="M417.649 267.16C417.538 268.938 417.426 270.049 417.426 270.494H419.098V271.494H417.426C417.315 273.272 417.315 274.605 417.315 275.605C417.315 275.939 417.315 276.383 417.426 276.939C417.426 277.494 417.538 277.939 417.649 278.272C417.76 278.494 417.983 278.605 418.429 278.605C418.541 278.605 418.763 278.605 419.098 278.494H419.209H419.321V279.272C419.209 279.272 419.209 279.383 419.209 279.383C418.429 279.605 417.872 279.716 417.315 279.716C416.423 279.716 415.754 279.494 415.309 278.939C414.974 278.383 414.751 277.716 414.751 276.716C414.751 276.05 414.751 275.05 414.863 273.716C414.863 273.494 414.863 273.05 414.863 272.605C414.863 272.161 414.863 271.716 414.863 271.494H413.525V270.716V270.494H414.863C414.863 270.272 414.863 269.827 414.863 269.383C414.863 268.827 414.863 268.494 414.863 268.272C415.531 268.049 416.423 267.605 417.426 267.049L417.649 267.16ZM409.513 278.161C409.067 278.716 408.51 279.05 408.176 279.383C407.73 279.605 407.284 279.716 406.615 279.716C405.501 279.716 404.609 279.272 404.052 278.494C403.718 278.05 403.495 277.272 403.495 276.161V275.494C403.495 275.05 403.495 274.272 403.495 273.383C403.495 272.494 403.495 271.827 403.495 271.272C403.495 271.161 403.495 270.938 403.495 270.716C403.495 270.494 403.495 270.383 403.495 270.272C404.163 270.272 404.721 270.272 405.055 270.272C405.278 270.272 405.724 270.272 406.392 270.272C406.281 271.383 406.17 273.161 406.17 275.383C406.17 276.161 406.281 276.716 406.392 276.939C406.615 277.605 407.061 277.939 407.73 277.939C408.51 277.939 408.956 277.605 409.067 276.939C409.29 276.272 409.402 275.494 409.402 274.494C409.402 274.05 409.402 273.272 409.402 272.383C409.402 271.383 409.402 270.716 409.29 270.272C409.959 270.272 410.405 270.272 410.628 270.272C410.962 270.272 411.408 270.272 411.965 270.272C411.854 270.938 411.854 271.716 411.854 272.494C411.854 272.827 411.854 273.383 411.854 274.05C411.854 274.716 411.854 275.272 411.854 275.605V276.605C411.854 277.494 411.854 278.272 411.965 279.161V279.494C411.854 279.494 411.519 279.494 411.296 279.494C410.962 279.494 410.739 279.494 410.516 279.494C410.405 279.494 410.182 279.494 409.959 279.494C409.736 279.494 409.513 279.494 409.29 279.494L409.513 278.161ZM401.377 279.605C401.266 279.605 400.931 279.605 400.709 279.605C400.374 279.605 400.151 279.605 400.04 279.605C399.928 279.605 399.594 279.605 399.26 279.605C398.925 279.605 398.702 279.605 398.591 279.605C398.702 278.605 398.702 277.161 398.702 275.161V273.827V271.494C398.702 271.161 398.702 270.605 398.702 269.938C398.702 269.272 398.702 268.716 398.702 268.383C398.702 267.938 398.702 267.16 398.702 266.16C398.702 266.049 398.702 265.938 398.702 265.716C398.702 265.494 398.702 265.383 398.702 265.272C399.148 265.383 399.594 265.383 400.151 265.383C400.709 265.383 401.266 265.383 401.6 265.272C401.6 265.383 401.6 265.494 401.6 265.716C401.6 265.938 401.6 266.049 401.6 266.16C401.6 266.383 401.6 266.716 401.6 267.16C401.6 267.605 401.6 267.938 401.6 268.16C401.6 268.494 401.6 269.049 401.6 269.716C401.6 270.383 401.6 270.938 401.6 271.272C401.266 274.383 401.266 277.272 401.377 279.605ZM390.232 273.716C390.121 274.161 390.121 274.605 390.121 275.161C390.121 277.716 390.678 278.939 391.904 278.939C392.35 278.939 392.796 278.716 393.018 278.383C393.241 278.05 393.464 277.605 393.576 277.05C393.687 276.383 393.799 275.494 393.799 274.494C393.799 274.272 393.799 273.938 393.687 273.494C393.576 271.827 393.018 270.938 392.015 270.938C391.458 270.938 391.012 271.161 390.678 271.716C390.455 272.383 390.232 273.05 390.232 273.716ZM387.223 275.272C387.223 273.827 387.669 272.605 388.56 271.716C389.006 271.272 389.452 270.938 390.121 270.716C390.789 270.494 391.347 270.383 392.015 270.383C392.684 270.383 393.353 270.494 393.91 270.716C394.579 270.938 395.025 271.272 395.47 271.716C396.25 272.605 396.696 273.716 396.696 275.05C396.696 276.05 396.473 276.827 396.139 277.605C395.805 278.383 395.247 278.939 394.467 279.383C393.799 279.828 392.907 280.05 391.904 280.05C391.012 280.05 390.121 279.828 389.452 279.494C388.783 279.161 388.226 278.605 387.78 277.939C387.446 276.939 387.223 276.161 387.223 275.272ZM384.548 269.049C384.102 267.938 383.434 267.383 382.319 267.383C381.65 267.383 381.205 267.494 380.759 267.938C380.425 268.272 380.202 268.716 380.202 269.272C380.202 269.716 380.425 270.161 380.759 270.383C381.205 270.716 381.762 271.049 382.654 271.494C383.545 271.938 384.102 272.272 384.66 272.605C385.105 272.938 385.551 273.383 385.663 273.827C385.886 274.272 385.997 274.827 385.997 275.494C385.997 276.05 385.886 276.716 385.551 277.272C385.217 278.05 384.437 278.716 383.545 279.161C382.876 279.494 381.985 279.716 380.982 279.716C379.756 279.716 378.753 279.494 377.861 278.939C378.196 277.939 378.307 277.161 378.418 276.494H378.753C378.864 277.161 379.199 277.605 379.644 277.939C380.09 278.272 380.647 278.494 381.316 278.494C381.985 278.494 382.431 278.383 382.876 278.05C383.322 277.716 383.545 277.272 383.545 276.605C383.545 276.05 383.322 275.605 382.876 275.161C382.319 274.716 381.539 274.383 380.759 273.938C380.536 273.827 380.202 273.605 379.867 273.383C379.533 273.161 379.31 273.05 379.199 272.938C378.753 272.716 378.418 272.272 378.196 271.716C377.973 271.161 377.861 270.605 377.861 270.049C377.861 268.827 378.307 267.827 379.31 267.049C379.756 266.716 380.202 266.494 380.647 266.272C381.093 266.16 381.65 266.049 382.319 266.049C383.434 266.049 384.325 266.272 385.217 266.827C385.217 266.827 385.217 266.938 385.328 266.938C385.105 267.494 384.883 268.16 384.771 268.827H384.548V269.049ZM363.707 269.716V271.716C364.041 271.272 364.487 270.938 365.044 270.716C365.602 270.383 366.047 270.272 366.493 270.272C367.385 270.272 368.165 270.605 368.722 271.161C369.279 271.716 369.502 272.494 369.502 273.605V276.272V278.716V279.716C369.391 279.716 369.168 279.716 368.834 279.716C368.499 279.716 368.276 279.716 368.165 279.716C368.054 279.716 367.831 279.716 367.496 279.716C367.162 279.716 366.939 279.716 366.828 279.716C366.828 279.605 366.828 279.383 366.828 279.05C366.828 278.827 366.828 278.605 366.828 278.383L366.939 276.605C366.939 276.272 367.05 275.716 367.05 274.938C367.05 274.161 367.05 273.605 366.939 273.05C366.828 272.716 366.716 272.494 366.382 272.272C366.159 272.05 365.825 271.938 365.49 271.938C364.821 271.938 364.376 272.272 364.153 272.827C363.93 273.383 363.818 274.272 363.818 275.383C363.818 275.716 363.818 276.161 363.818 276.716C363.818 277.272 363.818 277.827 363.818 278.383C363.818 278.939 363.818 279.383 363.818 279.716C363.707 279.716 363.484 279.716 363.15 279.716C362.815 279.716 362.592 279.716 362.481 279.716C362.37 279.716 362.147 279.716 361.812 279.716C361.478 279.716 361.255 279.716 361.144 279.716C361.144 279.161 361.255 278.716 361.255 278.494L361.367 273.827C361.367 273.605 361.367 273.161 361.367 272.716C361.367 272.272 361.367 271.827 361.367 271.605C361.367 269.494 361.255 267.383 361.144 265.383C361.589 265.494 362.035 265.494 362.592 265.494C363.261 265.494 363.707 265.494 364.041 265.383L363.707 269.716ZM358.915 273.05H358.469C358.357 272.494 358.134 272.05 357.8 271.716C357.466 271.383 357.02 271.161 356.463 271.161C355.683 271.161 355.125 271.494 354.679 272.272C354.345 273.05 354.122 273.827 354.122 274.716C354.122 275.939 354.345 276.827 354.791 277.383C355.237 278.05 356.017 278.494 357.02 278.494C357.8 278.494 358.469 278.161 359.026 277.605L359.36 277.827L358.915 278.939C358.692 279.161 358.246 279.383 357.8 279.494C357.243 279.605 356.797 279.716 356.351 279.716C354.679 279.716 353.565 279.272 352.673 278.494C351.782 277.605 351.336 276.494 351.336 275.05C351.336 274.05 351.559 273.161 352.005 272.494C352.45 271.716 353.008 271.161 353.788 270.716C354.568 270.272 355.46 270.161 356.463 270.161C357.8 270.161 358.915 270.494 359.806 271.049L358.915 273.05ZM344.426 275.05C344.426 275.383 344.426 275.716 344.538 276.161C344.538 276.494 344.649 276.827 344.872 277.161C345.095 277.494 345.206 277.827 345.429 278.05C345.875 278.494 346.432 278.605 347.101 278.605C347.881 278.605 348.661 278.272 349.33 277.716L349.553 277.939L349.107 279.05C348.327 279.605 347.324 279.939 346.321 279.939C345.541 279.939 344.76 279.828 344.203 279.605C343.646 279.383 343.089 279.05 342.643 278.494C341.863 277.716 341.528 276.494 341.528 274.938C341.528 274.05 341.751 273.272 342.086 272.605C342.42 271.938 342.977 271.383 343.646 270.938C344.315 270.494 345.095 270.383 345.986 270.383C346.878 270.383 347.658 270.605 348.215 270.938C348.773 271.272 349.218 271.827 349.553 272.383C349.887 273.05 349.999 273.716 349.999 274.605C349.999 274.827 349.999 275.05 349.999 275.272H344.426V275.05ZM347.324 274.161C347.324 274.161 347.324 274.05 347.324 273.938C347.324 273.827 347.324 273.716 347.324 273.716C347.212 271.938 346.878 271.049 345.986 271.049C345.429 271.049 344.983 271.383 344.76 271.938C344.538 272.494 344.426 273.272 344.426 274.161H347.324ZM337.07 269.383C337.07 269.938 337.07 270.716 337.07 271.716C337.07 272.827 337.07 273.605 337.07 274.05C337.07 274.272 337.07 274.716 337.07 275.272C337.07 275.827 337.07 276.272 337.07 276.494C337.07 276.827 337.07 277.383 337.07 278.05C337.07 278.716 337.07 279.272 337.07 279.605C336.959 279.605 336.625 279.605 336.29 279.605C335.956 279.605 335.621 279.605 335.51 279.605C335.287 279.605 335.064 279.605 334.73 279.605C334.396 279.605 334.173 279.605 333.95 279.605C333.95 279.272 333.95 278.827 334.061 278.272C334.061 277.716 334.061 277.272 334.061 276.939C334.173 274.161 334.173 272.049 334.173 270.494C334.173 269.938 334.173 269.161 334.061 268.049C333.727 268.049 333.17 268.049 332.389 268.16C331.721 268.272 331.052 268.272 330.495 268.383C330.606 268.16 330.606 267.938 330.606 267.605C330.606 267.272 330.606 267.049 330.606 266.938V266.827C330.606 266.716 330.606 266.716 330.606 266.716C331.275 266.716 331.721 266.716 332.055 266.716C333.392 266.716 334.618 266.827 335.51 266.827H337.516C337.85 266.827 338.296 266.827 338.965 266.716C339.634 266.716 340.079 266.605 340.525 266.605C340.414 266.827 340.414 267.16 340.414 267.383C340.414 267.716 340.414 267.938 340.525 268.272C339.411 268.049 338.296 268.049 337.182 268.049L337.07 269.383ZM323.028 275.05C323.028 277.383 323.585 278.605 324.699 278.605C325.368 278.605 325.925 278.161 326.148 277.383C326.371 276.605 326.594 275.716 326.594 274.827C326.594 273.938 326.483 273.161 326.26 272.494C326.037 271.827 325.591 271.383 324.922 271.383C324.254 271.383 323.696 271.716 323.473 272.494C323.139 273.383 323.028 274.161 323.028 275.05ZM326.705 265.272C326.928 265.272 327.374 265.383 327.82 265.383C328.154 265.383 328.6 265.383 329.269 265.272C329.269 265.827 329.269 266.494 329.157 267.16C329.157 268.716 329.046 269.827 329.046 270.605C329.046 273.161 328.934 274.938 328.934 276.272C328.934 277.05 328.934 278.161 329.046 279.716H328.823C328.377 279.716 328.043 279.605 327.82 279.605C327.708 279.605 327.486 279.605 327.151 279.605C326.817 279.605 326.594 279.605 326.483 279.605C326.594 278.716 326.594 278.161 326.594 277.939C326.037 279.161 325.145 279.828 323.919 279.828C322.582 279.828 321.69 279.383 321.021 278.494C320.464 277.605 320.13 276.494 320.13 275.05C320.13 273.827 320.464 272.716 321.021 271.716C321.356 271.272 321.69 270.938 322.247 270.605C322.805 270.272 323.25 270.161 323.808 270.161C325.034 270.161 325.925 270.605 326.371 271.494V270.049C326.371 269.827 326.371 269.494 326.371 268.938C326.371 268.494 326.371 268.049 326.371 267.827C326.371 267.272 326.371 266.383 326.26 265.16H326.705V265.272ZM313.554 275.05C313.554 275.383 313.554 275.716 313.666 276.161C313.666 276.494 313.777 276.827 314 277.161C314.223 277.494 314.334 277.827 314.557 278.05C315.003 278.494 315.56 278.605 316.229 278.605C317.009 278.605 317.789 278.272 318.458 277.716L318.681 277.939L318.235 279.05C317.455 279.605 316.452 279.939 315.449 279.939C314.669 279.939 313.889 279.828 313.331 279.605C312.774 279.383 312.217 279.05 311.771 278.494C310.991 277.716 310.657 276.494 310.657 274.938C310.657 274.05 310.879 273.272 311.214 272.605C311.548 271.938 312.105 271.383 312.774 270.938C313.443 270.494 314.223 270.383 315.115 270.383C316.006 270.383 316.786 270.605 317.344 270.938C317.901 271.272 318.347 271.827 318.681 272.383C318.904 273.05 319.127 273.716 319.127 274.605C319.127 274.827 319.127 275.05 319.127 275.272H313.554V275.05ZM316.563 274.161C316.563 274.161 316.563 274.05 316.563 273.938C316.563 273.827 316.563 273.716 316.563 273.716C316.452 271.938 316.118 271.049 315.226 271.049C314.669 271.049 314.223 271.383 314 271.938C313.777 272.494 313.666 273.272 313.666 274.161H316.563ZM295.722 266.494C295.834 266.494 295.945 266.494 296.057 266.605C296.279 266.605 296.391 266.716 296.502 266.716C296.614 266.716 296.948 266.716 297.283 266.605C298.397 268.938 299.846 271.938 301.741 275.605L302.855 273.383C304.192 270.938 305.196 268.605 306.199 266.494H306.31H306.421C307.09 266.494 307.536 266.494 307.87 266.494C308.093 268.272 308.428 271.272 308.873 275.494C308.985 275.939 309.096 276.605 309.208 277.494C309.319 278.383 309.431 278.827 309.431 278.827C309.431 278.939 309.431 279.05 309.542 279.272C309.542 279.494 309.542 279.605 309.542 279.716C309.431 279.716 309.096 279.716 308.762 279.716C308.428 279.716 308.093 279.716 307.982 279.716C307.759 279.716 307.536 279.716 307.202 279.716C306.867 279.716 306.644 279.716 306.421 279.716C306.421 278.383 306.31 277.05 306.087 275.494C305.976 273.938 305.753 272.383 305.641 270.938C303.524 275.272 302.075 278.272 301.406 279.716H300.626L299.177 276.716C298.843 275.939 298.286 274.938 297.728 273.605C297.06 272.383 296.725 271.494 296.502 271.161C296.279 272.494 296.168 273.605 296.057 274.494C295.945 275.272 295.945 276.05 295.834 276.605C295.722 277.383 295.722 277.939 295.722 278.494C295.722 278.605 295.722 278.827 295.722 279.05C295.722 279.272 295.722 279.494 295.722 279.605C295.388 279.494 295.165 279.494 294.831 279.494C294.496 279.494 294.273 279.494 293.939 279.605C293.939 279.383 293.939 279.161 294.05 278.939C294.162 278.605 294.273 278.05 294.385 277.272C294.496 276.494 294.608 276.05 294.608 276.05C294.831 274.938 294.942 273.605 295.165 272.272L295.722 266.494ZM279.45 275.05C279.45 277.383 280.008 278.605 281.122 278.605C281.791 278.605 282.348 278.161 282.571 277.383C282.794 276.605 283.017 275.716 283.017 274.827C283.017 273.938 282.905 273.161 282.683 272.494C282.46 271.827 282.014 271.383 281.345 271.383C280.676 271.383 280.119 271.716 279.896 272.494C279.562 273.383 279.45 274.161 279.45 275.05ZM283.017 265.272C283.24 265.272 283.686 265.383 284.131 265.383C284.466 265.383 284.912 265.383 285.58 265.272C285.58 265.827 285.58 266.494 285.469 267.16C285.469 268.716 285.357 269.827 285.357 270.605C285.357 273.161 285.246 274.938 285.246 276.272C285.246 277.05 285.246 278.161 285.357 279.716H285.134C284.689 279.716 284.354 279.605 284.131 279.605C284.02 279.605 283.797 279.605 283.463 279.605C283.128 279.605 282.905 279.605 282.794 279.605C282.905 278.716 282.905 278.161 282.905 277.939C282.348 279.161 281.457 279.828 280.231 279.828C278.893 279.828 278.002 279.383 277.333 278.494C276.776 277.605 276.441 276.494 276.441 275.05C276.441 273.827 276.776 272.716 277.333 271.716C277.667 271.272 278.002 270.938 278.559 270.605C279.116 270.272 279.562 270.161 280.119 270.161C281.345 270.161 282.125 270.605 282.683 271.494V270.049C282.683 269.827 282.683 269.494 282.683 268.938C282.683 268.494 282.683 268.049 282.683 267.827C282.683 267.272 282.683 266.383 282.571 265.16H283.017V265.272ZM269.866 275.05C269.866 275.383 269.866 275.716 269.977 276.161C269.977 276.494 270.089 276.827 270.312 277.161C270.534 277.494 270.646 277.827 270.869 278.05C271.315 278.494 271.872 278.605 272.541 278.605C273.321 278.605 274.101 278.272 274.77 277.716L274.992 277.939L274.547 279.05C273.766 279.605 272.763 279.939 271.76 279.939C270.98 279.939 270.2 279.828 269.643 279.605C269.086 279.383 268.528 279.05 268.083 278.494C267.302 277.716 266.968 276.494 266.968 274.938C266.968 274.05 267.191 273.272 267.525 272.605C267.86 271.938 268.417 271.383 269.086 270.938C269.754 270.494 270.534 270.383 271.426 270.383C272.318 270.383 273.098 270.605 273.655 270.938C274.212 271.272 274.658 271.827 274.992 272.383C275.215 273.05 275.438 273.716 275.438 274.605C275.438 274.827 275.438 275.05 275.438 275.272H269.866V275.05ZM272.875 274.161C272.875 274.161 272.875 274.05 272.875 273.938C272.875 273.827 272.875 273.716 272.875 273.716C272.763 271.938 272.429 271.049 271.537 271.049C270.98 271.049 270.534 271.383 270.312 271.938C270.089 272.494 269.977 273.272 269.977 274.161H272.875ZM265.296 273.05H264.85C264.739 272.494 264.516 272.05 264.182 271.716C263.847 271.383 263.402 271.161 262.844 271.161C262.064 271.161 261.507 271.494 261.061 272.272C260.727 273.05 260.504 273.827 260.504 274.716C260.504 275.939 260.727 276.827 261.173 277.383C261.618 278.05 262.399 278.494 263.402 278.494C264.182 278.494 264.85 278.161 265.408 277.605L265.742 277.827L265.296 278.939C265.073 279.161 264.628 279.383 264.182 279.494C263.625 279.605 263.179 279.716 262.733 279.716C261.061 279.716 259.835 279.272 259.055 278.494C258.163 277.605 257.718 276.494 257.718 275.05C257.718 274.05 257.941 273.161 258.386 272.494C258.832 271.716 259.389 271.161 260.17 270.716C260.95 270.272 261.841 270.161 262.844 270.161C264.182 270.161 265.296 270.494 266.188 271.049L265.296 273.05ZM247.241 270.494C247.91 270.494 248.356 270.494 248.69 270.494C248.913 270.494 249.359 270.494 249.916 270.494L249.805 271.827C250.696 270.716 251.699 270.272 252.702 270.272C253.594 270.272 254.486 270.605 255.043 271.383C255.377 271.716 255.489 272.161 255.6 272.494C255.712 272.938 255.712 273.494 255.712 274.161V276.494V279.716C255.489 279.716 255.266 279.716 254.931 279.716C254.597 279.716 254.374 279.716 254.151 279.716C254.04 279.716 253.817 279.716 253.483 279.716C253.148 279.716 252.925 279.716 252.814 279.716C252.814 279.605 252.814 279.605 252.814 279.494C252.814 279.383 252.814 279.383 252.814 279.272C252.814 279.161 252.814 279.05 252.814 279.05C252.814 278.939 252.814 278.939 252.814 278.827C252.814 278.605 252.814 278.161 252.814 277.716C252.814 277.272 252.814 276.827 252.814 276.605C252.814 276.494 252.814 276.272 252.814 275.939C252.814 275.716 252.814 275.383 252.814 275.161C252.814 274.272 252.702 273.494 252.591 272.938C252.368 272.383 251.922 272.049 251.254 272.049C250.585 272.049 250.139 272.383 249.916 272.938C249.693 273.494 249.582 274.383 249.582 275.494C249.582 275.827 249.582 276.272 249.582 276.827C249.582 277.383 249.582 277.939 249.582 278.494C249.582 279.05 249.582 279.494 249.582 279.828C249.47 279.828 249.247 279.828 248.913 279.828C248.579 279.828 248.356 279.828 248.244 279.828C248.133 279.828 247.91 279.828 247.576 279.828C247.241 279.828 247.018 279.828 246.907 279.828C246.907 279.716 246.907 279.605 246.907 279.383C246.907 279.161 246.907 278.939 246.907 278.827C246.907 278.605 246.907 278.161 246.907 277.716C246.907 277.272 246.907 276.827 246.907 276.494V274.272V273.494C246.907 273.161 246.907 272.716 246.907 272.272C246.907 271.827 246.907 271.383 246.907 271.161L247.241 270.494ZM238.102 272.716L237.879 271.605C238.325 271.161 238.883 270.938 239.44 270.716C240.108 270.494 240.666 270.383 241.334 270.383C242.226 270.383 243.118 270.605 243.786 271.049C244.455 271.494 244.901 272.161 244.901 272.938V274.161C244.901 274.605 244.901 275.05 244.901 275.605C244.901 276.161 244.901 276.605 244.901 276.939C244.901 277.383 244.901 277.827 244.901 278.05C244.901 278.494 245.124 278.716 245.347 278.827C245.57 278.827 245.792 278.827 245.904 278.827C246.015 278.827 246.015 278.939 246.015 279.161V279.383C245.904 279.494 245.57 279.605 245.124 279.716C244.789 279.828 244.455 279.828 244.344 279.828C243.898 279.828 243.563 279.716 243.229 279.494C242.895 279.272 242.672 278.939 242.449 278.494C242.226 278.939 241.892 279.272 241.446 279.494C241 279.716 240.554 279.828 239.997 279.828C239.217 279.828 238.548 279.605 237.991 279.161C237.434 278.716 237.211 278.161 237.211 277.272C237.211 276.827 237.322 276.383 237.545 276.05C237.768 275.716 237.991 275.383 238.437 275.161C238.883 274.938 239.663 274.605 240.777 274.383C241.446 274.272 241.892 274.05 242.115 273.938C242.226 273.827 242.337 273.605 242.337 273.161C242.337 272.716 242.115 272.383 241.78 272.049C241.446 271.716 241 271.605 240.554 271.605C239.774 271.605 239.105 271.938 238.437 272.494C238.437 272.494 238.325 272.605 238.214 272.716H238.102ZM239.886 277.05C239.886 278.05 240.22 278.494 240.889 278.494C241.78 278.494 242.337 277.827 242.337 276.494C242.337 275.716 242.337 275.05 242.449 274.716C242.115 274.938 241.78 274.938 241.669 275.05C241.557 275.05 241.446 275.161 241.223 275.161C241 275.272 240.889 275.272 240.777 275.272C240.666 275.272 240.554 275.383 240.443 275.494C239.997 275.827 239.886 276.383 239.886 277.05ZM227.515 270.494C228.183 270.494 228.629 270.494 228.963 270.494C229.632 270.494 230.078 270.494 230.412 270.383L232.53 277.05C233.644 273.938 234.424 271.716 234.87 270.494C234.982 270.494 235.093 270.494 235.093 270.494C235.65 270.494 236.096 270.494 236.431 270.494C236.431 270.494 236.431 270.716 236.319 270.938C236.208 271.161 235.873 271.938 235.316 273.161C235.093 273.827 234.87 274.272 234.647 274.716C234.536 275.161 234.313 275.605 233.979 276.383C233.644 277.05 233.421 277.716 233.31 278.272C233.087 278.827 232.976 279.272 232.864 279.605C232.753 279.605 232.641 279.605 232.418 279.605C232.195 279.605 232.084 279.605 231.861 279.605C231.75 279.605 231.527 279.605 231.304 279.605C231.081 279.605 230.858 279.605 230.747 279.605C230.078 277.716 229.521 276.05 229.075 274.716C228.629 273.383 228.072 272.05 227.515 270.605V270.494ZM219.936 275.05C219.936 277.383 220.493 278.605 221.608 278.605C222.276 278.605 222.834 278.161 223.057 277.383C223.279 276.605 223.502 275.716 223.502 274.827C223.502 273.938 223.391 273.161 223.168 272.494C222.945 271.827 222.499 271.383 221.831 271.383C221.162 271.383 220.605 271.716 220.382 272.494C220.047 273.383 219.936 274.161 219.936 275.05ZM223.502 265.272C223.725 265.272 224.171 265.383 224.617 265.383C224.951 265.383 225.397 265.383 226.066 265.272C226.066 265.827 226.066 266.494 225.954 267.16C225.954 268.716 225.843 269.827 225.843 270.605C225.843 273.161 225.731 274.938 225.731 276.272C225.731 277.05 225.731 278.161 225.843 279.716H225.62C225.174 279.716 224.84 279.605 224.617 279.605C224.505 279.605 224.283 279.605 223.948 279.605C223.614 279.605 223.391 279.605 223.279 279.605C223.391 278.716 223.391 278.161 223.391 277.939C222.834 279.161 221.942 279.828 220.716 279.828C219.379 279.828 218.487 279.383 217.818 278.494C217.261 277.605 216.927 276.494 216.927 275.05C216.927 273.827 217.261 272.716 217.818 271.716C218.153 271.272 218.487 270.938 219.044 270.605C219.602 270.272 220.047 270.161 220.605 270.161C221.831 270.161 222.722 270.605 223.168 271.494V270.049C223.168 269.827 223.168 269.494 223.168 268.938C223.168 268.494 223.168 268.049 223.168 267.827C223.168 267.272 223.168 266.383 223.057 265.16H223.502V265.272ZM207.565 274.494H211.02C210.574 273.383 210.017 271.827 209.348 270.049C208.679 271.605 208.122 273.05 207.565 274.383V274.494ZM203.999 279.383L205.447 276.161C207.119 272.383 208.457 269.161 209.46 266.383C209.571 266.383 209.571 266.383 209.683 266.383C209.794 266.383 209.905 266.383 209.905 266.383C210.017 266.383 210.128 266.383 210.128 266.383C210.24 266.383 210.351 266.383 210.463 266.383C210.574 266.383 210.686 266.383 210.797 266.383L210.908 266.716C212.469 270.827 214.141 275.05 215.924 279.161L216.035 279.383V279.605C215.812 279.605 215.589 279.605 215.255 279.605C214.921 279.605 214.586 279.605 214.475 279.605C213.918 279.605 213.36 279.605 212.915 279.716C212.357 277.939 211.912 276.716 211.577 275.827C211.354 275.827 211.02 275.827 210.574 275.827C210.128 275.827 209.794 275.827 209.46 275.827C209.014 275.827 208.234 275.827 207.119 275.939L207.008 276.161C206.785 276.716 206.562 277.383 206.339 278.05C206.116 278.716 205.893 279.272 205.782 279.828C205.447 279.716 205.224 279.716 204.89 279.716C204.556 279.716 204.333 279.716 203.999 279.828V279.383Z" fill="white"/>
<path d="M447.52 277.163C447.743 277.608 447.966 278.052 448.412 278.274C448.746 278.497 449.192 278.719 449.749 278.719C450.195 278.719 450.529 278.608 450.752 278.497C451.087 278.274 451.198 277.941 451.198 277.719C451.198 277.496 451.087 277.385 450.975 277.163C450.864 277.052 450.641 276.83 450.418 276.719C450.195 276.608 449.972 276.496 449.749 276.385C449.526 276.274 449.303 276.163 449.192 276.163C449.08 276.052 448.969 276.052 448.858 275.941C448.746 275.941 448.635 275.83 448.635 275.83C448.523 275.83 448.412 275.719 448.3 275.608C447.855 275.385 447.52 275.052 447.297 274.608C447.074 274.163 446.851 273.719 446.851 273.163C446.851 272.607 446.963 272.052 447.297 271.607C447.52 271.163 447.966 270.83 448.523 270.607C449.192 270.385 449.749 270.274 450.195 270.274C451.31 270.274 452.201 270.607 452.981 271.163C452.87 271.719 452.647 272.274 452.535 272.83H451.978C451.867 272.385 451.644 272.052 451.31 271.719C450.975 271.385 450.529 271.274 450.195 271.274C449.749 271.274 449.415 271.385 449.192 271.496C448.969 271.719 448.746 271.941 448.746 272.274C448.746 272.496 448.746 272.607 448.858 272.719C448.969 272.83 449.08 272.941 449.192 273.052C449.303 273.163 449.526 273.274 449.749 273.274C449.972 273.385 450.084 273.496 450.306 273.496C451.31 273.83 452.09 274.274 452.535 274.608C452.981 274.941 453.204 275.608 453.204 276.496C453.204 277.496 452.758 278.385 451.867 278.941C451.198 279.385 450.418 279.608 449.526 279.608C448.523 279.608 447.632 279.385 446.851 278.83C446.963 278.274 447.074 277.719 447.186 277.052H447.52V277.163ZM436.487 270.496C437.155 270.496 437.601 270.496 437.935 270.496C438.158 270.496 438.604 270.496 439.161 270.496L439.05 271.83C439.942 270.719 440.945 270.274 441.948 270.274C442.839 270.274 443.731 270.607 444.288 271.385C444.622 271.719 444.734 272.163 444.845 272.496C444.957 272.941 444.957 273.496 444.957 274.163V276.496V279.719C444.734 279.719 444.511 279.719 444.177 279.719C443.842 279.719 443.619 279.719 443.397 279.719C443.285 279.719 443.062 279.719 442.728 279.719C442.393 279.719 442.171 279.719 442.059 279.719C442.059 279.608 442.059 279.608 442.059 279.497C442.059 279.385 442.059 279.385 442.059 279.274C442.059 279.163 442.059 279.052 442.059 279.052C442.059 278.941 442.059 278.941 442.059 278.83C442.059 278.608 442.059 278.163 442.059 277.719C442.059 277.274 442.059 276.83 442.059 276.608C442.059 276.496 442.059 276.274 442.059 275.941C442.059 275.719 442.059 275.385 442.059 275.163C442.059 274.274 441.948 273.496 441.836 272.941C441.613 272.385 441.168 272.052 440.499 272.052C439.83 272.052 439.384 272.385 439.161 272.941C438.939 273.496 438.827 274.385 438.827 275.496C438.827 275.83 438.827 276.274 438.827 276.83C438.827 277.385 438.827 277.941 438.827 278.497C438.827 279.052 438.827 279.497 438.827 279.83C438.716 279.83 438.493 279.83 438.158 279.83C437.824 279.83 437.601 279.83 437.49 279.83C437.378 279.83 437.155 279.83 436.821 279.83C436.487 279.83 436.264 279.83 436.152 279.83C436.152 279.719 436.152 279.608 436.152 279.385C436.152 279.163 436.152 278.941 436.152 278.83C436.152 278.608 436.152 278.163 436.152 277.719C436.152 277.274 436.152 276.83 436.152 276.496V274.274V273.496C436.152 273.163 436.152 272.719 436.152 272.274C436.152 271.83 436.152 271.385 436.152 271.163L436.487 270.496ZM428.462 273.719C428.351 274.163 428.351 274.608 428.351 275.163C428.351 277.719 428.908 278.941 430.134 278.941C430.58 278.941 431.026 278.719 431.248 278.385C431.471 278.052 431.694 277.608 431.806 277.052C431.917 276.385 432.029 275.496 432.029 274.496C432.029 274.274 432.029 273.941 431.917 273.496C431.806 271.83 431.248 270.941 430.245 270.941C429.688 270.941 429.242 271.163 428.908 271.719C428.685 272.385 428.462 273.052 428.462 273.719ZM425.453 275.274C425.453 273.83 425.899 272.607 426.79 271.719C427.236 271.274 427.682 270.941 428.351 270.719C429.019 270.496 429.577 270.385 430.245 270.385C430.914 270.385 431.583 270.496 432.14 270.719C432.809 270.941 433.255 271.274 433.7 271.719C434.481 272.607 434.926 273.719 434.926 275.052C434.926 276.052 434.703 276.83 434.369 277.608C434.035 278.385 433.477 278.941 432.697 279.385C432.029 279.83 431.137 280.052 430.134 280.052C429.242 280.052 428.351 279.83 427.682 279.497C427.013 279.163 426.456 278.608 426.01 277.941C425.676 276.941 425.453 276.163 425.453 275.274ZM422.332 265.385C422.778 265.385 423.113 265.496 423.447 265.829C423.781 266.163 423.893 266.496 423.893 266.941C423.893 267.385 423.781 267.718 423.447 268.052C423.113 268.385 422.778 268.496 422.332 268.496C421.887 268.496 421.552 268.385 421.329 268.052C420.995 267.718 420.884 267.385 420.884 267.052C420.884 266.607 420.995 266.274 421.329 266.052C421.552 265.607 421.887 265.385 422.332 265.385ZM420.884 278.274C420.884 278.052 420.884 277.719 420.884 277.385C420.884 276.941 420.884 276.719 420.884 276.496C420.884 275.052 420.995 274.052 420.995 273.607C420.995 273.163 420.995 272.607 420.995 271.941C420.995 271.274 420.995 270.83 420.884 270.496H420.995C421.329 270.496 421.775 270.496 422.332 270.496C422.667 270.496 423.113 270.496 423.67 270.496L423.558 272.941C423.447 273.719 423.447 274.941 423.447 276.608C423.447 277.719 423.447 278.719 423.558 279.608C423.447 279.608 423.113 279.608 422.778 279.608C422.444 279.608 422.11 279.608 421.998 279.608C421.887 279.608 421.664 279.608 421.329 279.608C420.995 279.608 420.772 279.608 420.661 279.608L420.884 278.274Z" fill="white"/>
<path d="M449.636 207.827C447.964 203.382 444.843 201.16 440.497 201.16C437.822 201.16 435.704 201.827 434.144 203.271C432.584 204.716 431.804 206.494 431.804 208.716C431.804 210.605 432.584 212.16 434.256 213.494C435.927 214.827 438.379 216.383 441.946 218.272C445.401 220.049 448.187 221.716 450.193 223.05C452.199 224.494 453.648 226.161 454.539 228.161C455.431 230.05 455.877 232.383 455.877 235.161C455.877 237.606 455.32 240.05 454.094 242.606C452.533 245.828 449.636 248.384 445.623 250.273C442.726 251.717 439.159 252.384 434.924 252.384C430.02 252.384 425.674 251.273 422.107 249.05C423.222 245.05 424.002 241.717 424.448 239.05H425.897C426.454 241.717 427.791 243.828 429.797 245.272C431.804 246.717 434.144 247.495 436.93 247.495C439.494 247.495 441.723 246.828 443.506 245.384C445.289 244.05 446.181 242.05 446.181 239.495C446.181 237.272 445.178 235.272 443.283 233.383C440.72 231.605 437.822 229.939 434.367 228.383C433.364 227.828 432.249 227.161 430.801 226.272C429.352 225.383 428.46 224.716 428.014 224.494C426.231 223.383 424.894 221.716 424.002 219.494C423.11 217.272 422.665 214.938 422.665 212.605C422.665 207.494 424.671 203.382 428.683 200.16C430.466 198.716 432.361 197.604 434.256 197.049C436.15 196.493 438.379 196.271 441.054 196.271C445.623 196.271 449.636 197.382 452.868 199.382C452.979 199.493 453.091 199.716 453.425 199.938C452.645 202.382 451.753 205.049 450.973 207.716H449.636V207.827ZM359.138 197.16C359.361 197.16 359.918 197.271 360.587 197.382C361.255 197.493 361.813 197.604 362.259 197.604C362.927 197.604 364.042 197.493 365.602 197.16C370.06 206.938 376.078 219.383 383.88 234.605L388.561 225.494C393.91 215.272 398.48 205.827 402.381 197.16C402.492 197.16 402.604 197.271 402.826 197.271C403.049 197.271 403.161 197.382 403.161 197.382C405.836 197.382 407.842 197.271 409.179 197.16C409.959 204.493 411.408 216.827 413.414 234.272C413.749 236.272 414.083 238.939 414.64 242.495C415.086 245.939 415.42 247.828 415.42 248.05C415.42 248.384 415.532 248.939 415.643 249.717C415.755 250.495 415.866 251.05 415.866 251.384C415.309 251.384 414.194 251.273 412.746 251.162C411.297 251.05 410.182 251.05 409.402 251.05C408.733 251.05 407.619 251.162 406.281 251.162C404.833 251.273 403.718 251.273 402.938 251.384C402.715 246.05 402.269 240.161 401.601 233.717C400.932 227.272 400.263 220.938 399.594 214.938C390.678 233.05 384.883 245.272 381.985 251.495H378.976L372.846 238.606C371.286 235.272 369.28 231.05 366.605 225.827C364.042 220.605 362.37 217.272 361.59 215.716C360.81 221.272 360.252 225.939 359.807 229.716C359.472 233.05 359.249 236.05 359.138 238.606C358.804 241.717 358.581 244.272 358.469 246.384C358.469 246.939 358.358 247.717 358.358 248.828C358.358 249.939 358.246 250.717 358.246 251.273C357.02 251.05 355.794 250.939 354.457 250.939C353.231 250.939 352.005 251.05 350.779 251.273C350.779 250.273 351.002 249.273 351.448 248.384C351.782 246.939 352.117 244.606 352.674 241.383C353.231 238.161 353.454 236.494 353.454 236.272C354.234 231.494 355.014 226.272 355.683 220.827L359.138 197.16ZM311.103 230.383H325.703C323.92 225.605 321.579 219.383 318.57 211.938C315.784 218.383 313.332 224.272 311.437 229.716L311.103 230.383ZM296.168 250.717L302.075 237.161C308.874 221.716 314.335 208.271 318.57 196.715C318.904 196.715 319.127 196.827 319.573 196.827C319.907 196.938 320.353 196.938 320.688 196.938C321.022 197.049 321.356 197.049 321.691 197.049C322.136 197.049 322.582 197.049 323.139 196.938C323.697 196.827 324.143 196.827 324.588 196.715L325.257 198.049C331.833 215.272 338.743 232.383 345.987 249.606L346.433 250.384V251.162C345.652 251.162 344.538 251.05 343.089 250.939C341.64 250.828 340.414 250.828 339.634 250.828C337.405 250.828 335.176 250.939 333.059 251.162C330.83 243.939 328.935 238.494 327.597 234.939C326.594 234.939 325.146 234.939 323.251 234.828C321.245 234.717 319.796 234.717 318.793 234.717C316.787 234.717 313.555 234.828 309.208 234.939L308.874 236.05C307.982 238.494 307.091 241.05 306.088 243.717C305.084 246.384 304.416 248.828 303.859 251.162C302.633 250.939 301.407 250.828 300.069 250.828C298.843 250.828 297.617 250.939 296.391 251.162V250.717H296.168Z" fill="white"/>
<path d="M226.958 250.385H214.03C207.231 250.385 202.105 246.829 206.117 239.94C206.563 239.162 207.12 238.384 207.566 237.606C210.798 233.051 215.367 229.273 219.825 225.495C230.301 216.606 239.552 210.161 248.914 203.383C249.137 203.272 249.36 203.05 249.582 202.939C253.818 200.05 263.068 196.494 267.414 201.161C268.418 202.272 268.195 204.272 267.303 205.605C266.634 206.605 265.408 207.494 264.405 208.161C256.158 214.161 239.329 226.606 232.308 233.495C228.072 237.606 225.621 242.607 225.955 245.829C225.955 247.829 226.512 249.607 226.958 250.385Z" fill="white"/>
<path d="M292.492 215.159C291.377 223.826 290.597 232.271 283.576 239.382C279.006 244.16 272.208 246.938 264.741 248.604C258.722 249.938 252.816 250.493 246.351 250.493C242.005 250.493 243.231 250.493 238.661 250.493C236.878 250.493 235.541 250.493 233.98 250.271C230.748 249.827 229.522 248.716 229.3 245.938C229.077 242.715 231.64 237.937 236.098 233.715C236.878 232.937 237.658 232.271 238.55 231.493C240.11 230.159 240.556 229.715 242.785 229.715C245.794 229.826 248.915 230.048 251.924 230.048L261.62 230.159C274.214 229.937 287.031 224.604 292.492 215.159Z" fill="white"/>
<path d="M256.27 197.939C265.52 191.272 274.659 184.16 285.47 180.049C287.699 179.271 290.485 178.716 292.826 179.16C295.055 179.716 296.169 181.383 296.504 183.16C296.727 185.938 296.615 188.049 296.169 190.827C295.501 195.827 294.943 199.494 294.163 204.494C293.383 209.494 291.043 214.05 287.81 217.273C283.575 221.384 276.108 224.828 270.09 226.162C266.969 226.828 267.749 224.05 268.418 222.384C268.864 220.939 269.31 219.717 269.756 218.05C270.647 214.939 272.542 207.717 271.427 202.717C270.424 198.272 267.749 197.05 263.737 196.827C260.728 196.605 258.165 197.383 256.27 197.939Z" fill="white"/>
</svg>
