<svg width="660" height="460" viewBox="0 0 660 460" fill="none" xmlns="http://www.w3.org/2000/svg">
<path d="M304.047 230.584L294.723 220.376L288.882 224.689V230.584H285.667V211.185H288.882V221.233L302.467 211.185H307.102L297.188 218.527L308.174 230.584H304.047ZM325.614 230.584V211.185H345.173V214.106H328.829V219.063H340.19V221.983H328.829V227.663H345.923V230.584H325.614ZM378.141 227.663C379.106 227.663 379.99 227.503 380.794 227.181C381.615 226.842 382.312 226.377 382.883 225.788C383.473 225.198 383.928 224.502 384.25 223.698C384.589 222.876 384.759 221.983 384.759 221.019C384.759 219.983 384.58 219.045 384.223 218.205C383.884 217.348 383.392 216.616 382.749 216.008C382.124 215.401 381.365 214.937 380.472 214.615C379.597 214.276 378.614 214.106 377.525 214.106H368.201V227.663H378.141ZM377.257 211.185C378.954 211.185 380.481 211.427 381.838 211.909C383.196 212.373 384.348 213.034 385.295 213.892C386.241 214.749 386.965 215.794 387.465 217.026C387.983 218.241 388.242 219.599 388.242 221.099C388.242 222.474 387.974 223.743 387.438 224.904C386.92 226.065 386.143 227.101 385.107 228.012C384.161 228.851 383.071 229.494 381.838 229.941C380.606 230.369 379.284 230.584 377.873 230.584H364.986V211.185H377.257ZM416.222 213.945L411.265 223.323H421.152L416.222 213.945ZM424.983 230.584L422.733 226.243H409.685L407.434 230.584H403.924L414.186 211.185H418.232L428.493 230.584H424.983ZM460.952 220.268C462.167 220.268 463.087 220.018 463.712 219.518C464.355 219 464.676 218.259 464.676 217.294C464.676 215.169 463.337 214.106 460.657 214.106H449.351V220.268H460.952ZM464.408 230.584L459.157 223.189H449.351V230.584H446.135V211.185H461.434C463.488 211.185 465.087 211.73 466.23 212.82C467.391 213.909 467.972 215.401 467.972 217.294C467.972 218.152 467.847 218.911 467.597 219.572C467.347 220.233 466.989 220.804 466.525 221.287C466.079 221.751 465.543 222.126 464.917 222.412C464.31 222.698 463.649 222.903 462.935 223.028L468.133 230.584H464.408ZM304.047 267.584L294.723 257.376L288.882 261.689V267.584H285.667V248.185H288.882V258.233L302.467 248.185H307.102L297.188 255.527L308.174 267.584H304.047ZM335.596 250.945L330.639 260.323H340.525L335.596 250.945ZM344.357 267.584L342.106 263.243H329.058L326.807 267.584H323.297L333.559 248.185H337.605L347.867 267.584H344.357ZM365.509 267.584V248.185H368.724V264.663H383.701V267.584H365.509ZM412.48 250.945L407.524 260.323H417.41L412.48 250.945ZM421.242 267.584L418.991 263.243H405.943L403.692 267.584H400.182L410.444 248.185H414.49L424.752 267.584H421.242Z" fill="white"/>
<path d="M272.864 267.864H268.867V266.202H271.209V186.662H191.655V193.027H190V185H272.864V267.864Z" fill="white"/>
<path d="M269.017 267.327H267.899V242.683H255.736V267.866H254.64V241.561H269.017V267.327Z" fill="white"/>
<path d="M268.867 267.865L257.52 264.973V245.315L268.867 242.423V267.865ZM258.358 264.326L268.028 266.808V243.502L258.358 245.984V264.326Z" fill="white"/>
<path d="M259.197 254.701C259.219 254.701 259.219 254.68 259.24 254.68C259.391 254.593 259.52 254.615 259.649 254.744C259.82 254.917 259.863 255.133 259.82 255.37C259.777 255.608 259.67 255.759 259.477 255.823C259.412 255.845 259.348 255.845 259.283 255.802C259.606 255.521 259.541 254.896 259.197 254.701ZM259.477 255.521C259.584 255.392 259.563 255.154 259.477 255.025C259.541 255.198 259.541 255.349 259.477 255.521ZM259.52 255.521C259.627 255.413 259.606 255.154 259.498 255.047C259.584 255.198 259.584 255.349 259.52 255.521Z" fill="white"/>
<path d="M259.391 255.629C259.24 255.931 258.939 255.975 258.746 255.737C258.553 255.5 258.574 255.09 258.746 254.852C258.896 254.658 259.111 254.658 259.283 254.809C259.412 254.939 259.455 255.111 259.455 255.262C259.477 255.414 259.455 255.521 259.391 255.629ZM259.176 254.874C259.047 254.701 258.875 254.701 258.746 254.874C258.574 255.09 258.574 255.521 258.767 255.716C258.896 255.845 259.047 255.845 259.176 255.716C259.283 255.608 259.305 255.457 259.305 255.284C259.305 255.133 259.262 255.004 259.176 254.874ZM259.176 255.824C259.326 255.737 259.391 255.565 259.412 255.37C259.434 255.133 259.369 254.939 259.219 254.788C259.111 254.701 259.004 254.68 258.875 254.745C258.896 254.745 258.918 254.723 258.939 254.723C259.111 254.701 259.219 254.788 259.305 254.96C259.434 255.198 259.391 255.565 259.219 255.737C259.133 255.845 259.025 255.867 258.896 255.845C259.004 255.888 259.09 255.888 259.176 255.824Z" fill="white"/>
<path d="M259.325 255.847C259.454 255.89 259.562 255.847 259.669 255.739C259.884 255.523 259.927 255.091 259.734 254.811C259.605 254.617 259.39 254.552 259.218 254.681C259.175 254.703 259.153 254.681 259.132 254.681C259.261 254.53 259.476 254.509 259.648 254.617C259.991 254.832 260.034 255.48 259.734 255.782C259.583 255.933 259.368 255.976 259.218 255.868C259.239 255.847 259.282 255.825 259.325 255.847ZM259.884 255.221C259.884 255.027 259.798 254.854 259.669 254.724C259.777 254.854 259.841 255.027 259.841 255.242C259.841 255.437 259.777 255.609 259.669 255.76C259.82 255.609 259.905 255.437 259.884 255.221Z" fill="white"/>
<path d="M258.638 255.221C258.638 255.2 258.638 255.178 258.659 255.157C258.681 255.07 258.702 255.005 258.767 254.941C258.853 254.833 259.003 254.833 259.089 254.941C259.239 255.113 259.239 255.459 259.089 255.631C259.003 255.739 258.853 255.739 258.767 255.631C258.724 255.567 258.702 255.502 258.659 255.437C258.681 255.567 258.745 255.674 258.831 255.739C258.917 255.804 259.003 255.782 259.089 255.696C259.282 255.523 259.282 255.092 259.089 254.919C258.982 254.811 258.831 254.833 258.745 254.962C258.681 255.027 258.659 255.135 258.638 255.221Z" fill="white"/>
<path d="M191.654 267.862L190.128 267.215L220.321 198.054H222.126L191.654 267.862Z" fill="white"/>
<path d="M240.071 266.201L191.655 233.379V266.222V267.884H190V198.054H191.655V231.372L245.486 267.862H242.542L240.071 266.201Z" fill="white"/>
<path d="M252.77 267.862L208.975 238.234L225.908 198.054H227.692L211.016 237.63L255.736 267.862H252.77Z" fill="white"/>
<path opacity="0.5" d="M255.736 267.668V267.863L254.64 267.129V266.913L255.736 267.668Z" fill="white"/>
</svg>
