<svg width="660" height="460" viewBox="0 0 660 460" fill="none" xmlns="http://www.w3.org/2000/svg">
<path fill-rule="evenodd" clip-rule="evenodd" d="M155 188.999L197.675 213.604L240.876 189.082L240.876 246.835L228.557 253.816L228.557 210.239L197.627 227.796L167.319 210.322L167.319 253.816L155 246.835L155 188.999Z" fill="white"/>
<path fill-rule="evenodd" clip-rule="evenodd" d="M170.993 241.134L197.642 256.564L224.883 240.923L224.883 255.549L197.642 271.128L170.993 255.733L170.993 241.134Z" fill="white"/>
<path d="M309.321 234.084L303.105 234.084L303.105 213.785L294.933 234.084L292.238 234.084L284.066 213.785L284.066 234.084L277.894 234.084L277.894 205.091L286.544 205.091L293.586 222.609L300.628 205.091L309.321 205.091L309.321 234.084ZM328.815 234.606C320.078 234.606 313.688 228.346 313.688 219.609C313.688 210.872 320.078 204.613 328.815 204.613C337.596 204.613 343.985 210.872 343.985 219.609C343.985 228.346 337.596 234.606 328.815 234.606ZM328.815 229.129C334.162 229.129 337.639 224.999 337.639 219.609C337.639 214.176 334.162 210.09 328.815 210.09C323.469 210.09 320.035 214.176 320.035 219.609C320.035 224.999 323.469 229.129 328.815 229.129ZM374.267 234.084L368.312 234.084L354.489 215.176L354.489 234.084L348.317 234.084L348.317 205.091L354.663 205.091L368.095 223.304L368.095 205.091L374.267 205.091L374.267 234.084ZM386.156 234.084L379.984 234.084L379.984 205.091L386.156 205.091L386.156 234.084ZM412.429 234.084L391.912 234.084L391.912 205.091L412.429 205.091L412.429 210.525L398.085 210.525L398.085 216.654L412.125 216.654L412.125 222.087L398.085 222.087L398.085 228.651L412.429 228.651L412.429 234.084ZM417.776 234.084L417.776 205.091L421.384 205.091L421.384 230.868L434.859 230.868L434.859 234.084L417.776 234.084ZM439.934 234.084L439.934 205.091L443.542 205.091L443.542 234.084L439.934 234.084ZM470.851 234.084L453.942 210.959L453.942 234.084L450.335 234.084L450.335 205.091L454.029 205.091L470.721 227.738L470.721 205.091L474.329 205.091L474.329 234.084L470.851 234.084ZM498.628 234.084L487.63 221.044L484.718 224.347L484.718 234.084L481.11 234.084L481.11 205.091L484.718 205.091L484.718 220.088L497.541 205.091L502.062 205.091L489.978 218.87L503.105 234.084L498.628 234.084Z" fill="white"/>
</svg>
