<svg width="660" height="460" viewBox="0 0 660 460" fill="none" xmlns="http://www.w3.org/2000/svg">
<path d="M487.691 229.329L486.85 233.277H476.226L476.911 229.942C477.785 225.658 474.511 221.65 470.138 221.65H442.075L444.172 211.145H472.884C482.468 211.145 489.635 219.946 487.691 229.329Z" fill="white"/>
<path fill-rule="evenodd" clip-rule="evenodd" d="M474.281 242.864L473.967 244.401C473.84 243.472 472.95 242.928 471.824 242.928H447.595C445.572 242.928 443.82 243.869 443.378 245.846L441.732 253.225C441.309 255.113 442.747 256.907 444.682 256.907H467.834C469.857 256.907 471.609 255.502 472.051 253.528L472.712 250.562L471.993 254.094C471.581 256.105 469.813 257.55 467.76 257.55H434.929C434.154 262.733 438.17 267.456 443.475 267.456H438.796C433.322 267.456 429.228 262.43 430.335 257.069L433.045 243.941C433.119 243.582 433.204 243.233 433.304 242.891L436.14 242.864H474.281Z" fill="white"/>
<path fill-rule="evenodd" clip-rule="evenodd" d="M484.885 242.864L482.079 256.413L481.926 257.115C481.041 261.394 478.109 264.813 474.281 266.436C473.985 266.561 473.685 266.674 473.382 266.778C472.772 266.984 472.143 267.146 471.5 267.259C471.498 267.257 471.496 267.257 471.493 267.259C471.308 267.292 471.123 267.319 470.936 267.345C470.379 267.419 469.808 267.456 469.232 267.456H443.47C438.165 267.456 434.15 262.733 434.924 257.55H467.755C469.808 257.55 471.577 256.105 471.988 254.094L472.707 250.562L473.928 245.097C473.983 244.847 473.992 244.614 473.962 244.401L474.277 242.864H484.885Z" fill="white"/>
<path d="M354.623 229.46L353.941 232.882C350.704 232.75 347.294 232.572 343.748 232.341L344.218 230.059C345.101 225.771 341.827 221.753 337.449 221.753H307.144L309.213 211.385H339.795C349.331 211.385 356.488 220.109 354.623 229.46Z" fill="white"/>
<path d="M351.688 244.196L347 267.702H336.47L341.23 244.589C344.919 244.443 348.41 244.314 351.688 244.196Z" fill="white"/>
<path d="M315.015 229.5C311.984 229.093 308.923 228.645 305.844 228.155L306.822 223.372C310.768 223.372 313.988 226.014 315.015 229.5Z" fill="white"/>
<path d="M312.689 245.837L308.216 267.699H297.753L302.12 246.362C305.731 246.177 309.256 246.003 312.689 245.837Z" fill="white"/>
<path d="M397.358 221.894L380.551 221.818L378.133 233.168H371.284C370.084 233.184 368.819 233.194 367.495 233.194L369.929 221.771L360.964 221.73L363.308 211.11L372.192 211.149L376.06 193H386.691L382.815 211.197L389.038 211.225C394.611 211.251 398.692 216.482 397.358 221.894Z" fill="white"/>
<path d="M390.657 257.204L388.419 267.699H378.823C369.204 267.699 362.031 258.836 364.035 249.429L365.251 243.726C369.53 243.604 373.12 243.518 375.941 243.463L374.794 248.851C373.876 253.153 377.157 257.204 381.553 257.204H390.657Z" fill="white"/>
<path d="M410.541 243.099L405.446 267.698H394.812L400.022 243.207L410.541 243.099Z" fill="white"/>
<path d="M438.149 211.145L435.93 221.571H423.794C418.673 221.571 414.255 225.168 413.217 230.182L412.598 233.169H402.16L404.299 223.118C405.785 216.136 411.951 211.145 419.087 211.145H438.149Z" fill="white"/>
<path fill-rule="evenodd" clip-rule="evenodd" d="M299.44 226.878L299.403 227.068C295.152 226.312 290.892 225.47 286.652 224.534C286.673 224.56 286.691 224.585 286.71 224.61C285.457 222.995 283.496 221.936 281.252 221.936H275.886C268.697 220.04 261.669 217.846 254.993 215.317C252.431 214.346 249.877 213.389 247.336 212.451C248.922 211.762 250.665 211.385 252.484 211.385H286.73C294.907 211.385 301.04 218.863 299.44 226.878Z" fill="white"/>
<path fill-rule="evenodd" clip-rule="evenodd" d="M295.482 246.708L293.376 257.273C292.166 263.334 286.845 267.699 280.666 267.699H246.417C238.243 267.699 232.11 260.22 233.71 252.203L234.013 250.68C237.499 250.365 241.091 250.067 244.79 249.79C244.792 249.746 244.797 249.702 244.801 249.658C244.436 253.65 247.585 257.185 251.686 257.185H277.293C280.626 257.185 283.486 254.806 284.089 251.528L284.873 247.288C288.477 247.085 292.016 246.893 295.482 246.708Z" fill="white"/>
<path fill-rule="evenodd" clip-rule="evenodd" d="M412.595 233.168L410.54 243.099L400.021 243.208L402.157 233.168H412.595Z" fill="white"/>
<path fill-rule="evenodd" clip-rule="evenodd" d="M378.13 233.168L375.936 243.462C373.116 243.518 369.526 243.603 365.247 243.726L367.491 233.194C368.816 233.194 370.08 233.184 371.28 233.168H378.13Z" fill="white"/>
<path d="M227.025 251.356L223.766 267.702H213.238L216.361 252.533C219.787 252.123 223.343 251.728 227.025 251.356Z" fill="white"/>
<path d="M160.408 263.08L159.463 267.698H149L149.079 267.317C151.289 266.15 155.057 264.684 160.408 263.08Z" fill="white"/>
<path d="M193.876 255.717L191.423 267.703H180.962L183.015 257.675C186.397 257.014 190.015 256.357 193.876 255.717Z" fill="white"/>
<path fill-rule="evenodd" clip-rule="evenodd" d="M216.562 211.385H160.496L158.427 221.754H214.218C218.594 221.754 221.87 225.771 220.987 230.06L216.359 252.53C219.785 252.121 223.34 251.725 227.023 251.353L231.39 229.461C233.256 220.11 226.101 211.385 216.562 211.385ZM190.033 223.372L183.012 257.671H183.015C186.397 257.01 190.015 256.353 193.875 255.713L198.397 233.62C199.481 228.328 195.436 223.372 190.033 223.372ZM158.071 223.372L149.078 267.318C151.288 266.15 155.057 264.685 160.408 263.08L166.437 233.62C167.519 228.328 163.476 223.372 158.071 223.372Z" fill="white"/>
<path fill-rule="evenodd" clip-rule="evenodd" d="M315.358 231.629C315.358 231.576 315.356 231.521 315.351 231.465C315.349 231.393 315.345 231.322 315.338 231.252C315.333 231.181 315.326 231.111 315.319 231.04C315.312 230.968 315.305 230.899 315.296 230.829C315.289 230.76 315.28 230.691 315.266 230.621C315.257 230.561 315.247 230.503 315.238 230.443C315.227 230.365 315.21 230.286 315.194 230.207C315.167 230.071 315.134 229.935 315.1 229.801C315.086 229.738 315.067 229.678 315.051 229.618C315.049 229.606 315.046 229.595 315.042 229.583C315.035 229.556 315.026 229.53 315.019 229.502H315.016C311.986 229.096 308.925 228.647 305.846 228.157L302.119 246.364C305.73 246.179 309.255 246.006 312.688 245.839L315.187 233.622C315.208 233.513 315.229 233.405 315.247 233.294C315.266 233.185 315.282 233.076 315.296 232.968C315.315 232.822 315.331 232.679 315.34 232.535C315.349 232.394 315.356 232.253 315.361 232.112V232.103C315.361 232.027 315.361 231.951 315.361 231.874C315.361 231.793 315.361 231.71 315.356 231.629H315.358ZM343.751 232.344L341.229 244.589C344.919 244.443 348.409 244.314 351.687 244.196L353.944 232.884C350.707 232.753 347.297 232.575 343.751 232.344Z" fill="white"/>
<path fill-rule="evenodd" clip-rule="evenodd" d="M497.152 242.92H436.127L433.302 242.888C433.372 242.65 433.446 242.419 433.524 242.19C433.545 242.132 433.566 242.074 433.587 242.016C433.654 241.829 433.728 241.644 433.802 241.462C433.804 241.462 433.804 241.459 433.804 241.459C433.88 241.277 433.961 241.096 434.044 240.918C434.086 240.831 434.128 240.743 434.171 240.655C434.206 240.59 434.239 240.525 434.271 240.461C434.329 240.352 434.386 240.248 434.447 240.142C434.493 240.058 434.541 239.975 434.59 239.892C434.638 239.809 434.689 239.728 434.74 239.647C434.791 239.566 434.842 239.485 434.895 239.407C434.946 239.326 434.999 239.247 435.055 239.171C435.166 239.009 435.281 238.849 435.399 238.695C435.454 238.625 435.508 238.556 435.563 238.489C435.75 238.255 435.945 238.029 436.148 237.811C436.201 237.754 436.254 237.698 436.307 237.643C436.453 237.492 436.601 237.347 436.754 237.203C436.874 237.09 436.999 236.979 437.124 236.871C437.271 236.741 437.426 236.616 437.581 236.494C437.66 236.431 437.738 236.371 437.817 236.313C437.953 236.209 438.092 236.11 438.236 236.011C438.256 235.994 438.277 235.981 438.3 235.967C438.377 235.914 438.455 235.863 438.531 235.809C438.871 235.59 439.22 235.384 439.581 235.192C439.662 235.148 439.745 235.104 439.828 235.063C439.879 235.035 439.932 235.01 439.983 234.984C440.057 234.947 440.133 234.91 440.21 234.876C440.818 234.587 441.451 234.337 442.108 234.127C442.189 234.099 442.269 234.073 442.35 234.05C442.57 233.981 442.792 233.918 443.018 233.861C443.12 233.833 443.222 233.808 443.324 233.784C443.428 233.759 443.529 233.736 443.633 233.713C443.737 233.69 443.841 233.667 443.945 233.646C444.022 233.63 444.1 233.613 444.179 233.599C444.264 233.583 444.35 233.567 444.436 233.553C444.535 233.535 444.637 233.519 444.736 233.502C444.824 233.489 444.912 233.475 445.002 233.463C445.18 233.435 445.36 233.412 445.541 233.394C445.647 233.38 445.753 233.368 445.862 233.359C445.971 233.347 446.079 233.338 446.19 233.329C446.232 233.324 446.276 233.322 446.32 233.32C446.495 233.306 446.671 233.294 446.849 233.285C446.958 233.28 447.069 233.276 447.18 233.274C447.272 233.269 447.362 233.267 447.452 233.267C447.584 233.264 447.718 233.262 447.85 233.262H476.236H486.877H498.62H498.732L498.75 233.165L499.744 227.917L510.336 238.073L496.228 247.974L497.152 242.92Z" fill="white"/>
<path fill-rule="evenodd" clip-rule="evenodd" d="M254.989 215.321C252.428 214.35 249.873 213.393 247.333 212.455C247.319 212.462 247.303 212.468 247.289 212.473C247.185 212.519 247.081 212.566 246.979 212.614C246.861 212.67 246.746 212.727 246.63 212.785C246.515 212.843 246.401 212.903 246.288 212.965C246.182 213.023 246.075 213.081 245.971 213.143C245.719 213.289 245.472 213.444 245.232 213.606C245.146 213.664 245.06 213.724 244.977 213.784C244.88 213.851 244.785 213.92 244.691 213.992C244.367 214.235 244.057 214.491 243.759 214.766C243.669 214.845 243.581 214.928 243.493 215.014C243.146 215.344 242.82 215.696 242.513 216.066C242.46 216.13 242.407 216.195 242.356 216.26C242.346 216.269 242.337 216.281 242.33 216.292C242.277 216.359 242.226 216.424 242.175 216.491C242.118 216.563 242.062 216.637 242.011 216.71C241.96 216.78 241.91 216.849 241.861 216.919C241.854 216.928 241.847 216.937 241.84 216.949C241.792 217.02 241.743 217.092 241.695 217.164C241.593 217.316 241.493 217.471 241.399 217.628C241.35 217.707 241.304 217.788 241.258 217.866C241.165 218.028 241.075 218.19 240.99 218.354C240.948 218.435 240.906 218.518 240.865 218.601C240.823 218.685 240.784 218.77 240.742 218.853C240.698 218.948 240.654 219.043 240.613 219.138C240.543 219.3 240.476 219.461 240.412 219.626C240.351 219.78 240.294 219.935 240.241 220.093C240.099 220.492 239.979 220.904 239.88 221.322C239.864 221.387 239.85 221.452 239.834 221.519C239.813 221.618 239.792 221.715 239.771 221.815L234.013 250.684C237.499 250.369 241.091 250.071 244.79 249.794C244.792 249.75 244.797 249.706 244.802 249.662C244.811 249.558 244.822 249.454 244.839 249.348C244.836 249.345 244.839 249.341 244.841 249.336C244.852 249.232 244.869 249.128 244.889 249.024L248.842 227.596C249.448 224.318 252.308 221.94 255.641 221.94H275.883C268.693 220.044 261.666 217.85 254.989 215.321ZM286.649 224.538C286.669 224.563 286.688 224.589 286.706 224.614C286.741 224.658 286.776 224.702 286.806 224.746C286.84 224.79 286.873 224.834 286.903 224.88C287.032 225.06 287.15 225.248 287.259 225.44C287.282 225.479 287.303 225.518 287.326 225.557C287.386 225.668 287.444 225.782 287.495 225.895C287.518 225.941 287.539 225.987 287.559 226.034C287.587 226.089 287.61 226.145 287.633 226.202C287.652 226.244 287.668 226.288 287.684 226.332C287.714 226.401 287.74 226.471 287.763 226.54C287.788 226.609 287.811 226.676 287.832 226.746C287.846 226.783 287.858 226.82 287.867 226.857C287.89 226.933 287.913 227.009 287.932 227.086C287.955 227.171 287.975 227.259 287.996 227.344C288.019 227.442 288.038 227.539 288.054 227.638C288.063 227.687 288.07 227.735 288.077 227.784C288.082 227.798 288.084 227.811 288.084 227.825C288.093 227.876 288.1 227.925 288.105 227.976C288.116 228.045 288.123 228.114 288.128 228.186C288.133 228.23 288.137 228.274 288.14 228.318C288.147 228.399 288.153 228.482 288.153 228.565C288.158 228.655 288.16 228.748 288.16 228.838C288.16 229.254 288.123 229.677 288.045 230.105L284.873 247.292C288.477 247.089 292.016 246.897 295.482 246.712L299.4 227.072C295.149 226.316 290.888 225.474 286.649 224.538Z" fill="white"/>
</svg>
