<svg width="660" height="460" viewBox="0 0 660 460" fill="none" xmlns="http://www.w3.org/2000/svg">
<g clip-path="url(#clip0_20_1041)">
<path d="M408.465 206.241L387.539 206.241L409.595 263.62H428.804L408.465 206.241Z" fill="white"/>
<path d="M432.024 206.241L452.949 206.241L430.894 263.62H411.685L432.024 206.241Z" fill="white"/>
<path d="M477.223 206.241L498.148 206.241L484.904 238.76H465.696L477.223 206.241Z" fill="white"/>
<path d="M452.649 206.241L431.723 206.241L453.779 263.62H472.988L452.649 206.241Z" fill="white"/>
<path d="M213.412 206.241H234.058L203.379 276.615L180.778 276.615L213.412 206.241Z" fill="white"/>
<path d="M181.647 206.238L161.001 206.238L176.278 239.327H197.746L181.647 206.238Z" fill="white"/>
<path d="M306.769 180.001H285.3V264.75H306.769V180.001Z" fill="white"/>
<path d="M333.887 180.001H312.418V264.75H333.887V180.001Z" fill="white"/>
<path fill-rule="evenodd" clip-rule="evenodd" d="M365.529 264.748C384.251 264.748 399.428 250.583 399.428 233.109C399.428 215.635 384.251 201.469 365.529 201.469C346.806 201.469 331.629 215.635 331.629 233.109C331.629 250.583 346.806 264.748 365.529 264.748ZM365.529 246.669C373.642 246.669 380.219 240.598 380.219 233.109C380.219 225.62 373.642 219.549 365.529 219.549C357.416 219.549 350.839 225.62 350.839 233.109C350.839 240.598 357.416 246.669 365.529 246.669Z" fill="white"/>
<path fill-rule="evenodd" clip-rule="evenodd" d="M243.49 241.021H286.43V223.507C284.546 217.292 275.582 204.862 254.79 204.862C233.998 204.862 225.034 222.942 223.151 231.982C223.151 243.093 229.479 265.316 254.79 265.316C280.102 265.316 286.43 252.51 286.43 246.106H266.655C266.09 247.425 262.926 250.061 254.79 250.061C246.654 250.061 243.867 244.035 243.49 241.021ZM242.925 229.722H268.35C268.161 226.708 265.412 220.682 255.92 220.682C246.428 220.682 243.302 226.708 242.925 229.722Z" fill="white"/>
</g>
<defs>
<clipPath id="clip0_20_1041">
<rect width="338.947" height="99.9078" fill="white" transform="translate(161.001 180)"/>
</clipPath>
</defs>
</svg>
