<svg width="500" height="501" viewBox="0 0 500 501" fill="none" xmlns="http://www.w3.org/2000/svg" className="w-full h-full">
<path d="M40 13H106.261V222.826H40V13Z" fill="#FF5F00"/>
<path d="M459.654 487.869H393.394V278.043H459.654V487.869Z" fill="#FF5F00"/>
<path d="M40.1406 278.043V487.869H106.401V322.217L198.062 287.983V223.931L40.1406 278.043Z" fill="#FF5F00"/>
<path d="M393.527 178.653V13.0007H460.892V222.826L291.927 290.889V222.826L393.527 178.653Z" fill="#FF5F00"/>
<path d="M246.651 306.756L295.242 285.774C295.242 263.779 295.242 249.995 295.242 228L257.334 210.358C254.732 209.147 251.761 208.996 249.051 209.938L201.373 226.5V285.774L246.651 306.756ZM201.373 226.5L246.651 249.33M295.242 228L246.651 249.33M246.651 249.33V306.756" stroke="#FF5F00" stroke-width="7"/>
</svg>
