<svg width="445" height="270" viewBox="0 0 445 270" fill="none" xmlns="http://www.w3.org/2000/svg">
<path d="M283 160.709C282.923 161.94 282.846 162.71 282.846 163.018H284.004V163.711H282.846C282.769 164.942 282.769 165.866 282.769 166.559C282.769 166.789 282.769 167.097 282.846 167.482C282.846 167.867 282.923 168.175 283 168.406C283.078 168.56 283.232 168.637 283.541 168.637C283.618 168.637 283.772 168.637 284.004 168.56H284.081H284.158V169.099C284.081 169.099 284.081 169.176 284.081 169.176C283.541 169.33 283.155 169.407 282.769 169.407C282.151 169.407 281.688 169.253 281.379 168.868C281.147 168.483 280.993 168.021 280.993 167.328C280.993 166.866 280.993 166.174 281.07 165.25C281.07 165.096 281.07 164.788 281.07 164.48C281.07 164.172 281.07 163.865 281.07 163.711H280.144V163.172V163.018H281.07C281.07 162.864 281.07 162.556 281.07 162.248C281.07 161.863 281.07 161.632 281.07 161.478C281.533 161.325 282.151 161.017 282.846 160.632L283 160.709ZM277.364 168.329C277.056 168.714 276.67 168.945 276.438 169.176C276.129 169.33 275.82 169.407 275.357 169.407C274.585 169.407 273.967 169.099 273.581 168.56C273.35 168.252 273.195 167.713 273.195 166.943V166.482C273.195 166.174 273.195 165.635 273.195 165.019C273.195 164.403 273.195 163.942 273.195 163.557C273.195 163.48 273.195 163.326 273.195 163.172C273.195 163.018 273.195 162.941 273.195 162.864C273.659 162.864 274.045 162.864 274.276 162.864C274.431 162.864 274.739 162.864 275.203 162.864C275.126 163.634 275.048 164.865 275.048 166.405C275.048 166.943 275.126 167.328 275.203 167.482C275.357 167.944 275.666 168.175 276.129 168.175C276.67 168.175 276.978 167.944 277.056 167.482C277.21 167.02 277.287 166.482 277.287 165.789C277.287 165.481 277.287 164.942 277.287 164.326C277.287 163.634 277.287 163.172 277.21 162.864C277.673 162.864 277.982 162.864 278.136 162.864C278.368 162.864 278.677 162.864 279.063 162.864C278.986 163.326 278.986 163.865 278.986 164.403C278.986 164.634 278.986 165.019 278.986 165.481C278.986 165.943 278.986 166.328 278.986 166.559V167.251C278.986 167.867 278.986 168.406 279.063 169.022V169.253C278.986 169.253 278.754 169.253 278.6 169.253C278.368 169.253 278.214 169.253 278.059 169.253C277.982 169.253 277.828 169.253 277.673 169.253C277.519 169.253 277.364 169.253 277.21 169.253L277.364 168.329ZM271.729 169.33C271.651 169.33 271.42 169.33 271.265 169.33C271.034 169.33 270.879 169.33 270.802 169.33C270.725 169.33 270.493 169.33 270.262 169.33C270.03 169.33 269.876 169.33 269.798 169.33C269.876 168.637 269.876 167.636 269.876 166.251V165.327V163.711C269.876 163.48 269.876 163.095 269.876 162.633C269.876 162.171 269.876 161.786 269.876 161.555C269.876 161.248 269.876 160.709 269.876 160.016C269.876 159.939 269.876 159.862 269.876 159.708C269.876 159.554 269.876 159.477 269.876 159.4C270.184 159.477 270.493 159.477 270.879 159.477C271.265 159.477 271.651 159.477 271.883 159.4C271.883 159.477 271.883 159.554 271.883 159.708C271.883 159.862 271.883 159.939 271.883 160.016C271.883 160.17 271.883 160.401 271.883 160.709C271.883 161.017 271.883 161.248 271.883 161.401C271.883 161.632 271.883 162.017 271.883 162.479C271.883 162.941 271.883 163.326 271.883 163.557C271.651 165.712 271.651 167.713 271.729 169.33ZM264.008 165.25C263.931 165.558 263.931 165.866 263.931 166.251C263.931 168.021 264.317 168.868 265.166 168.868C265.475 168.868 265.784 168.714 265.938 168.483C266.093 168.252 266.247 167.944 266.324 167.559C266.401 167.097 266.479 166.482 266.479 165.789C266.479 165.635 266.479 165.404 266.401 165.096C266.324 163.942 265.938 163.326 265.243 163.326C264.857 163.326 264.549 163.48 264.317 163.865C264.162 164.326 264.008 164.788 264.008 165.25ZM261.924 166.328C261.924 165.327 262.232 164.48 262.85 163.865C263.159 163.557 263.468 163.326 263.931 163.172C264.394 163.018 264.78 162.941 265.243 162.941C265.707 162.941 266.17 163.018 266.556 163.172C267.019 163.326 267.328 163.557 267.637 163.865C268.177 164.48 268.486 165.25 268.486 166.174C268.486 166.866 268.332 167.405 268.1 167.944C267.868 168.483 267.482 168.868 266.942 169.176C266.479 169.483 265.861 169.637 265.166 169.637C264.549 169.637 263.931 169.483 263.468 169.253C263.004 169.022 262.618 168.637 262.31 168.175C262.078 167.482 261.924 166.943 261.924 166.328ZM260.071 162.017C259.762 161.248 259.299 160.863 258.527 160.863C258.063 160.863 257.755 160.94 257.446 161.248C257.214 161.478 257.06 161.786 257.06 162.171C257.06 162.479 257.214 162.787 257.446 162.941C257.755 163.172 258.141 163.403 258.758 163.711C259.376 164.019 259.762 164.249 260.148 164.48C260.457 164.711 260.766 165.019 260.843 165.327C260.997 165.635 261.074 166.02 261.074 166.482C261.074 166.866 260.997 167.328 260.766 167.713C260.534 168.252 259.993 168.714 259.376 169.022C258.913 169.253 258.295 169.407 257.6 169.407C256.751 169.407 256.056 169.253 255.438 168.868C255.67 168.175 255.747 167.636 255.824 167.174H256.056C256.133 167.636 256.365 167.944 256.674 168.175C256.982 168.406 257.369 168.56 257.832 168.56C258.295 168.56 258.604 168.483 258.913 168.252C259.221 168.021 259.376 167.713 259.376 167.251C259.376 166.866 259.221 166.559 258.913 166.251C258.527 165.943 257.986 165.712 257.446 165.404C257.291 165.327 257.06 165.173 256.828 165.019C256.596 164.865 256.442 164.788 256.365 164.711C256.056 164.557 255.824 164.249 255.67 163.865C255.516 163.48 255.438 163.095 255.438 162.71C255.438 161.863 255.747 161.171 256.442 160.632C256.751 160.401 257.06 160.247 257.369 160.093C257.677 160.016 258.063 159.939 258.527 159.939C259.299 159.939 259.916 160.093 260.534 160.478C260.534 160.478 260.534 160.555 260.611 160.555C260.457 160.94 260.302 161.401 260.225 161.863H260.071V162.017ZM245.633 162.479V163.865C245.865 163.557 246.174 163.326 246.56 163.172C246.946 162.941 247.255 162.864 247.564 162.864C248.181 162.864 248.722 163.095 249.108 163.48C249.494 163.865 249.648 164.403 249.648 165.173V167.02V168.714V169.407C249.571 169.407 249.416 169.407 249.185 169.407C248.953 169.407 248.799 169.407 248.722 169.407C248.644 169.407 248.49 169.407 248.258 169.407C248.027 169.407 247.872 169.407 247.795 169.407C247.795 169.33 247.795 169.176 247.795 168.945C247.795 168.791 247.795 168.637 247.795 168.483L247.872 167.251C247.872 167.02 247.95 166.636 247.95 166.097C247.95 165.558 247.95 165.173 247.872 164.788C247.795 164.557 247.718 164.403 247.486 164.249C247.332 164.095 247.1 164.019 246.869 164.019C246.405 164.019 246.097 164.249 245.942 164.634C245.788 165.019 245.711 165.635 245.711 166.405C245.711 166.636 245.711 166.943 245.711 167.328C245.711 167.713 245.711 168.098 245.711 168.483C245.711 168.868 245.711 169.176 245.711 169.407C245.633 169.407 245.479 169.407 245.247 169.407C245.016 169.407 244.861 169.407 244.784 169.407C244.707 169.407 244.553 169.407 244.321 169.407C244.089 169.407 243.935 169.407 243.858 169.407C243.858 169.022 243.935 168.714 243.935 168.56L244.012 165.327C244.012 165.173 244.012 164.865 244.012 164.557C244.012 164.249 244.012 163.942 244.012 163.788C244.012 162.325 243.935 160.863 243.858 159.477C244.167 159.554 244.475 159.554 244.861 159.554C245.325 159.554 245.633 159.554 245.865 159.477L245.633 162.479ZM242.314 164.788H242.005C241.928 164.403 241.773 164.095 241.542 163.865C241.31 163.634 241.001 163.48 240.615 163.48C240.075 163.48 239.689 163.711 239.38 164.249C239.148 164.788 238.994 165.327 238.994 165.943C238.994 166.789 239.148 167.405 239.457 167.79C239.766 168.252 240.306 168.56 241.001 168.56C241.542 168.56 242.005 168.329 242.391 167.944L242.622 168.098L242.314 168.868C242.159 169.022 241.85 169.176 241.542 169.253C241.156 169.33 240.847 169.407 240.538 169.407C239.38 169.407 238.608 169.099 237.99 168.56C237.373 167.944 237.064 167.174 237.064 166.174C237.064 165.481 237.218 164.865 237.527 164.403C237.836 163.865 238.222 163.48 238.762 163.172C239.303 162.864 239.92 162.787 240.615 162.787C241.542 162.787 242.314 163.018 242.931 163.403L242.314 164.788ZM232.277 166.174C232.277 166.405 232.277 166.636 232.354 166.943C232.354 167.174 232.432 167.405 232.586 167.636C232.74 167.867 232.818 168.098 232.972 168.252C233.281 168.56 233.667 168.637 234.13 168.637C234.67 168.637 235.211 168.406 235.674 168.021L235.829 168.175L235.52 168.945C234.979 169.33 234.284 169.56 233.59 169.56C233.049 169.56 232.509 169.483 232.123 169.33C231.737 169.176 231.351 168.945 231.042 168.56C230.501 168.021 230.27 167.174 230.27 166.097C230.27 165.481 230.424 164.942 230.656 164.48C230.887 164.019 231.273 163.634 231.737 163.326C232.2 163.018 232.74 162.941 233.358 162.941C233.976 162.941 234.516 163.095 234.902 163.326C235.288 163.557 235.597 163.942 235.829 164.326C236.06 164.788 236.137 165.25 236.137 165.866C236.137 166.02 236.137 166.174 236.137 166.328H232.277V166.174ZM234.284 165.558C234.284 165.558 234.284 165.481 234.284 165.404C234.284 165.327 234.284 165.25 234.284 165.25C234.207 164.019 233.976 163.403 233.358 163.403C232.972 163.403 232.663 163.634 232.509 164.019C232.354 164.403 232.277 164.942 232.277 165.558H234.284ZM227.182 162.248C227.182 162.633 227.182 163.172 227.182 163.865C227.182 164.634 227.182 165.173 227.182 165.481C227.182 165.635 227.182 165.943 227.182 166.328C227.182 166.713 227.182 167.02 227.182 167.174C227.182 167.405 227.182 167.79 227.182 168.252C227.182 168.714 227.182 169.099 227.182 169.33C227.104 169.33 226.873 169.33 226.641 169.33C226.41 169.33 226.178 169.33 226.101 169.33C225.946 169.33 225.792 169.33 225.56 169.33C225.329 169.33 225.174 169.33 225.02 169.33C225.02 169.099 225.02 168.791 225.097 168.406C225.097 168.021 225.097 167.713 225.097 167.482C225.174 165.558 225.174 164.095 225.174 163.018C225.174 162.633 225.174 162.094 225.097 161.325C224.865 161.325 224.479 161.325 223.939 161.401C223.476 161.478 223.013 161.478 222.627 161.555C222.704 161.401 222.704 161.248 222.704 161.017C222.704 160.786 222.704 160.632 222.704 160.555V160.478C222.704 160.401 222.704 160.401 222.704 160.401C223.167 160.401 223.476 160.401 223.707 160.401C224.634 160.401 225.483 160.478 226.101 160.478H227.49C227.722 160.478 228.031 160.478 228.494 160.401C228.957 160.401 229.266 160.324 229.575 160.324C229.498 160.478 229.498 160.709 229.498 160.863C229.498 161.094 229.498 161.248 229.575 161.478C228.803 161.325 228.031 161.325 227.259 161.325L227.182 162.248ZM217.454 166.174C217.454 167.79 217.84 168.637 218.612 168.637C219.075 168.637 219.461 168.329 219.616 167.79C219.77 167.251 219.924 166.636 219.924 166.02C219.924 165.404 219.847 164.865 219.693 164.403C219.538 163.942 219.23 163.634 218.766 163.634C218.303 163.634 217.917 163.865 217.763 164.403C217.531 165.019 217.454 165.558 217.454 166.174ZM220.002 159.4C220.156 159.4 220.465 159.477 220.774 159.477C221.005 159.477 221.314 159.477 221.777 159.4C221.777 159.785 221.777 160.247 221.7 160.709C221.7 161.786 221.623 162.556 221.623 163.095C221.623 164.865 221.546 166.097 221.546 167.02C221.546 167.559 221.546 168.329 221.623 169.407H221.468C221.16 169.407 220.928 169.33 220.774 169.33C220.696 169.33 220.542 169.33 220.31 169.33C220.079 169.33 219.924 169.33 219.847 169.33C219.924 168.714 219.924 168.329 219.924 168.175C219.538 169.022 218.921 169.483 218.072 169.483C217.145 169.483 216.527 169.176 216.064 168.56C215.678 167.944 215.447 167.174 215.447 166.174C215.447 165.327 215.678 164.557 216.064 163.865C216.296 163.557 216.527 163.326 216.913 163.095C217.299 162.864 217.608 162.787 217.994 162.787C218.844 162.787 219.461 163.095 219.77 163.711V162.71C219.77 162.556 219.77 162.325 219.77 161.94C219.77 161.632 219.77 161.325 219.77 161.171C219.77 160.786 219.77 160.17 219.693 159.323H220.002V159.4ZM210.892 166.174C210.892 166.405 210.892 166.636 210.969 166.943C210.969 167.174 211.046 167.405 211.2 167.636C211.355 167.867 211.432 168.098 211.586 168.252C211.895 168.56 212.281 168.637 212.744 168.637C213.285 168.637 213.825 168.406 214.288 168.021L214.443 168.175L214.134 168.945C213.594 169.33 212.899 169.56 212.204 169.56C211.664 169.56 211.123 169.483 210.737 169.33C210.351 169.176 209.965 168.945 209.656 168.56C209.116 168.021 208.884 167.174 208.884 166.097C208.884 165.481 209.039 164.942 209.27 164.48C209.502 164.019 209.888 163.634 210.351 163.326C210.814 163.018 211.355 162.941 211.972 162.941C212.59 162.941 213.13 163.095 213.516 163.326C213.902 163.557 214.211 163.942 214.443 164.326C214.597 164.788 214.752 165.25 214.752 165.866C214.752 166.02 214.752 166.174 214.752 166.328H210.892V166.174ZM212.976 165.558C212.976 165.558 212.976 165.481 212.976 165.404C212.976 165.327 212.976 165.25 212.976 165.25C212.899 164.019 212.667 163.403 212.05 163.403C211.664 163.403 211.355 163.634 211.2 164.019C211.046 164.403 210.969 164.942 210.969 165.558H212.976ZM198.539 160.247C198.616 160.247 198.693 160.247 198.77 160.324C198.925 160.324 199.002 160.401 199.079 160.401C199.156 160.401 199.388 160.401 199.62 160.324C200.392 161.94 201.395 164.019 202.708 166.559L203.48 165.019C204.406 163.326 205.101 161.709 205.796 160.247H205.873H205.95C206.414 160.247 206.722 160.247 206.954 160.247C207.108 161.478 207.34 163.557 207.649 166.482C207.726 166.789 207.803 167.251 207.881 167.867C207.958 168.483 208.035 168.791 208.035 168.791C208.035 168.868 208.035 168.945 208.112 169.099C208.112 169.253 208.112 169.33 208.112 169.407C208.035 169.407 207.803 169.407 207.572 169.407C207.34 169.407 207.108 169.407 207.031 169.407C206.877 169.407 206.722 169.407 206.491 169.407C206.259 169.407 206.105 169.407 205.95 169.407C205.95 168.483 205.873 167.559 205.719 166.482C205.642 165.404 205.487 164.326 205.41 163.326C203.943 166.328 202.939 168.406 202.476 169.407H201.936L200.932 167.328C200.701 166.789 200.315 166.097 199.928 165.173C199.465 164.326 199.234 163.711 199.079 163.48C198.925 164.403 198.848 165.173 198.77 165.789C198.693 166.328 198.693 166.866 198.616 167.251C198.539 167.79 198.539 168.175 198.539 168.56C198.539 168.637 198.539 168.791 198.539 168.945C198.539 169.099 198.539 169.253 198.539 169.33C198.307 169.253 198.153 169.253 197.921 169.253C197.69 169.253 197.535 169.253 197.304 169.33C197.304 169.176 197.304 169.022 197.381 168.868C197.458 168.637 197.535 168.252 197.612 167.713C197.69 167.174 197.767 166.866 197.767 166.866C197.921 166.097 197.998 165.173 198.153 164.249L198.539 160.247ZM187.267 166.174C187.267 167.79 187.653 168.637 188.425 168.637C188.888 168.637 189.274 168.329 189.429 167.79C189.583 167.251 189.738 166.636 189.738 166.02C189.738 165.404 189.66 164.865 189.506 164.403C189.351 163.942 189.043 163.634 188.579 163.634C188.116 163.634 187.73 163.865 187.576 164.403C187.344 165.019 187.267 165.558 187.267 166.174ZM189.738 159.4C189.892 159.4 190.201 159.477 190.51 159.477C190.741 159.477 191.05 159.477 191.513 159.4C191.513 159.785 191.513 160.247 191.436 160.709C191.436 161.786 191.359 162.556 191.359 163.095C191.359 164.865 191.282 166.097 191.282 167.02C191.282 167.559 191.282 168.329 191.359 169.407H191.204C190.896 169.407 190.664 169.33 190.51 169.33C190.432 169.33 190.278 169.33 190.046 169.33C189.815 169.33 189.66 169.33 189.583 169.33C189.66 168.714 189.66 168.329 189.66 168.175C189.274 169.022 188.657 169.483 187.807 169.483C186.881 169.483 186.263 169.176 185.8 168.56C185.414 167.944 185.182 167.174 185.182 166.174C185.182 165.327 185.414 164.557 185.8 163.865C186.032 163.557 186.263 163.326 186.649 163.095C187.035 162.864 187.344 162.787 187.73 162.787C188.579 162.787 189.12 163.095 189.506 163.711V162.71C189.506 162.556 189.506 162.325 189.506 161.94C189.506 161.632 189.506 161.325 189.506 161.171C189.506 160.786 189.506 160.17 189.429 159.323H189.738V159.4ZM180.627 166.174C180.627 166.405 180.627 166.636 180.705 166.943C180.705 167.174 180.782 167.405 180.936 167.636C181.091 167.867 181.168 168.098 181.322 168.252C181.631 168.56 182.017 168.637 182.48 168.637C183.021 168.637 183.561 168.406 184.024 168.021L184.179 168.175L183.87 168.945C183.33 169.33 182.635 169.56 181.94 169.56C181.399 169.56 180.859 169.483 180.473 169.33C180.087 169.176 179.701 168.945 179.392 168.56C178.852 168.021 178.62 167.174 178.62 166.097C178.62 165.481 178.774 164.942 179.006 164.48C179.238 164.019 179.624 163.634 180.087 163.326C180.55 163.018 181.091 162.941 181.708 162.941C182.326 162.941 182.866 163.095 183.252 163.326C183.638 163.557 183.947 163.942 184.179 164.326C184.333 164.788 184.488 165.25 184.488 165.866C184.488 166.02 184.488 166.174 184.488 166.328H180.627V166.174ZM182.712 165.558C182.712 165.558 182.712 165.481 182.712 165.404C182.712 165.327 182.712 165.25 182.712 165.25C182.635 164.019 182.403 163.403 181.785 163.403C181.399 163.403 181.091 163.634 180.936 164.019C180.782 164.403 180.705 164.942 180.705 165.558H182.712ZM177.462 164.788H177.153C177.076 164.403 176.922 164.095 176.69 163.865C176.458 163.634 176.15 163.48 175.764 163.48C175.223 163.48 174.837 163.711 174.528 164.249C174.297 164.788 174.142 165.327 174.142 165.943C174.142 166.789 174.297 167.405 174.605 167.79C174.914 168.252 175.455 168.56 176.15 168.56C176.69 168.56 177.153 168.329 177.539 167.944L177.771 168.098L177.462 168.868C177.308 169.022 176.999 169.176 176.69 169.253C176.304 169.33 175.995 169.407 175.686 169.407C174.528 169.407 173.679 169.099 173.139 168.56C172.521 167.944 172.212 167.174 172.212 166.174C172.212 165.481 172.367 164.865 172.675 164.403C172.984 163.865 173.37 163.48 173.911 163.172C174.451 162.864 175.069 162.787 175.764 162.787C176.69 162.787 177.462 163.018 178.08 163.403L177.462 164.788ZM164.955 163.018C165.418 163.018 165.727 163.018 165.959 163.018C166.113 163.018 166.422 163.018 166.808 163.018L166.731 163.942C167.348 163.172 168.043 162.864 168.738 162.864C169.356 162.864 169.973 163.095 170.359 163.634C170.591 163.865 170.668 164.172 170.745 164.403C170.822 164.711 170.822 165.096 170.822 165.558V167.174V169.407C170.668 169.407 170.514 169.407 170.282 169.407C170.05 169.407 169.896 169.407 169.742 169.407C169.664 169.407 169.51 169.407 169.278 169.407C169.047 169.407 168.892 169.407 168.815 169.407C168.815 169.33 168.815 169.33 168.815 169.253C168.815 169.176 168.815 169.176 168.815 169.099C168.815 169.022 168.815 168.945 168.815 168.945C168.815 168.868 168.815 168.868 168.815 168.791C168.815 168.637 168.815 168.329 168.815 168.021C168.815 167.713 168.815 167.405 168.815 167.251C168.815 167.174 168.815 167.02 168.815 166.789C168.815 166.636 168.815 166.405 168.815 166.251C168.815 165.635 168.738 165.096 168.661 164.711C168.506 164.326 168.198 164.095 167.734 164.095C167.271 164.095 166.962 164.326 166.808 164.711C166.653 165.096 166.576 165.712 166.576 166.482C166.576 166.713 166.576 167.02 166.576 167.405C166.576 167.79 166.576 168.175 166.576 168.56C166.576 168.945 166.576 169.253 166.576 169.483C166.499 169.483 166.345 169.483 166.113 169.483C165.881 169.483 165.727 169.483 165.65 169.483C165.573 169.483 165.418 169.483 165.187 169.483C164.955 169.483 164.801 169.483 164.723 169.483C164.723 169.407 164.723 169.33 164.723 169.176C164.723 169.022 164.723 168.868 164.723 168.791C164.723 168.637 164.723 168.329 164.723 168.021C164.723 167.713 164.723 167.405 164.723 167.174V165.635V165.096C164.723 164.865 164.723 164.557 164.723 164.249C164.723 163.942 164.723 163.634 164.723 163.48L164.955 163.018ZM158.624 164.557L158.47 163.788C158.779 163.48 159.165 163.326 159.551 163.172C160.014 163.018 160.4 162.941 160.863 162.941C161.481 162.941 162.098 163.095 162.562 163.403C163.025 163.711 163.334 164.172 163.334 164.711V165.558C163.334 165.866 163.334 166.174 163.334 166.559C163.334 166.943 163.334 167.251 163.334 167.482C163.334 167.79 163.334 168.098 163.334 168.252C163.334 168.56 163.488 168.714 163.642 168.791C163.797 168.791 163.951 168.791 164.028 168.791C164.106 168.791 164.106 168.868 164.106 169.022V169.176C164.028 169.253 163.797 169.33 163.488 169.407C163.256 169.483 163.025 169.483 162.948 169.483C162.639 169.483 162.407 169.407 162.176 169.253C161.944 169.099 161.79 168.868 161.635 168.56C161.481 168.868 161.249 169.099 160.94 169.253C160.631 169.407 160.323 169.483 159.937 169.483C159.396 169.483 158.933 169.33 158.547 169.022C158.161 168.714 158.007 168.329 158.007 167.713C158.007 167.405 158.084 167.097 158.238 166.866C158.393 166.636 158.547 166.405 158.856 166.251C159.165 166.097 159.705 165.866 160.477 165.712C160.94 165.635 161.249 165.481 161.404 165.404C161.481 165.327 161.558 165.173 161.558 164.865C161.558 164.557 161.404 164.326 161.172 164.095C160.94 163.865 160.631 163.788 160.323 163.788C159.782 163.788 159.319 164.019 158.856 164.403C158.856 164.403 158.779 164.48 158.701 164.557H158.624ZM159.859 167.559C159.859 168.252 160.091 168.56 160.554 168.56C161.172 168.56 161.558 168.098 161.558 167.174C161.558 166.636 161.558 166.174 161.635 165.943C161.404 166.097 161.172 166.097 161.095 166.174C161.017 166.174 160.94 166.251 160.786 166.251C160.631 166.328 160.554 166.328 160.477 166.328C160.4 166.328 160.323 166.405 160.245 166.482C159.937 166.713 159.859 167.097 159.859 167.559ZM151.29 163.018C151.753 163.018 152.062 163.018 152.293 163.018C152.757 163.018 153.065 163.018 153.297 162.941L154.764 167.559C155.536 165.404 156.076 163.865 156.385 163.018C156.462 163.018 156.54 163.018 156.54 163.018C156.926 163.018 157.234 163.018 157.466 163.018C157.466 163.018 157.466 163.172 157.389 163.326C157.312 163.48 157.08 164.019 156.694 164.865C156.54 165.327 156.385 165.635 156.231 165.943C156.154 166.251 155.999 166.559 155.768 167.097C155.536 167.559 155.382 168.021 155.304 168.406C155.15 168.791 155.073 169.099 154.996 169.33C154.918 169.33 154.841 169.33 154.687 169.33C154.532 169.33 154.455 169.33 154.301 169.33C154.224 169.33 154.069 169.33 153.915 169.33C153.76 169.33 153.606 169.33 153.529 169.33C153.065 168.021 152.679 166.866 152.371 165.943C152.062 165.019 151.676 164.095 151.29 163.095V163.018ZM146.04 166.174C146.04 167.79 146.426 168.637 147.198 168.637C147.661 168.637 148.047 168.329 148.202 167.79C148.356 167.251 148.51 166.636 148.51 166.02C148.51 165.404 148.433 164.865 148.279 164.403C148.124 163.942 147.816 163.634 147.352 163.634C146.889 163.634 146.503 163.865 146.349 164.403C146.117 165.019 146.04 165.558 146.04 166.174ZM148.51 159.4C148.665 159.4 148.974 159.477 149.282 159.477C149.514 159.477 149.823 159.477 150.286 159.4C150.286 159.785 150.286 160.247 150.209 160.709C150.209 161.786 150.132 162.556 150.132 163.095C150.132 164.865 150.054 166.097 150.054 167.02C150.054 167.559 150.054 168.329 150.132 169.407H149.977C149.668 169.407 149.437 169.33 149.282 169.33C149.205 169.33 149.051 169.33 148.819 169.33C148.588 169.33 148.433 169.33 148.356 169.33C148.433 168.714 148.433 168.329 148.433 168.175C148.047 169.022 147.43 169.483 146.58 169.483C145.654 169.483 145.036 169.176 144.573 168.56C144.187 167.944 143.955 167.174 143.955 166.174C143.955 165.327 144.187 164.557 144.573 163.865C144.805 163.557 145.036 163.326 145.422 163.095C145.808 162.864 146.117 162.787 146.503 162.787C147.352 162.787 147.97 163.095 148.279 163.711V162.71C148.279 162.556 148.279 162.325 148.279 161.94C148.279 161.632 148.279 161.325 148.279 161.171C148.279 160.786 148.279 160.17 148.202 159.323H148.51V159.4ZM137.47 165.789H139.864C139.555 165.019 139.169 163.942 138.705 162.71C138.242 163.788 137.856 164.788 137.47 165.712V165.789ZM135 169.176L136.003 166.943C137.161 164.326 138.088 162.094 138.783 160.17C138.86 160.17 138.86 160.17 138.937 160.17C139.014 160.17 139.091 160.17 139.091 160.17C139.169 160.17 139.246 160.17 139.246 160.17C139.323 160.17 139.4 160.17 139.477 160.17C139.555 160.17 139.632 160.17 139.709 160.17L139.786 160.401C140.867 163.249 142.025 166.174 143.26 169.022L143.338 169.176V169.33C143.183 169.33 143.029 169.33 142.797 169.33C142.566 169.33 142.334 169.33 142.257 169.33C141.871 169.33 141.485 169.33 141.176 169.407C140.79 168.175 140.481 167.328 140.25 166.713C140.095 166.713 139.864 166.713 139.555 166.713C139.246 166.713 139.014 166.713 138.783 166.713C138.474 166.713 137.933 166.713 137.161 166.789L137.084 166.943C136.93 167.328 136.775 167.79 136.621 168.252C136.467 168.714 136.312 169.099 136.235 169.483C136.003 169.407 135.849 169.407 135.617 169.407C135.386 169.407 135.231 169.407 135 169.483V169.176Z" fill="white"/>
<path d="M303.693 167.638C303.847 167.946 304.002 168.254 304.311 168.408C304.542 168.562 304.851 168.716 305.237 168.716C305.546 168.716 305.777 168.639 305.932 168.562C306.163 168.408 306.241 168.177 306.241 168.023C306.241 167.869 306.163 167.792 306.086 167.638C306.009 167.562 305.855 167.408 305.7 167.331C305.546 167.254 305.391 167.177 305.237 167.1C305.083 167.023 304.928 166.946 304.851 166.946C304.774 166.869 304.697 166.869 304.619 166.792C304.542 166.792 304.465 166.715 304.465 166.715C304.388 166.715 304.311 166.638 304.233 166.561C303.925 166.407 303.693 166.176 303.539 165.868C303.384 165.56 303.23 165.252 303.23 164.868C303.23 164.483 303.307 164.098 303.539 163.79C303.693 163.482 304.002 163.251 304.388 163.097C304.851 162.943 305.237 162.866 305.546 162.866C306.318 162.866 306.935 163.097 307.476 163.482C307.399 163.867 307.244 164.252 307.167 164.637H306.781C306.704 164.329 306.549 164.098 306.318 163.867C306.086 163.636 305.777 163.559 305.546 163.559C305.237 163.559 305.005 163.636 304.851 163.713C304.697 163.867 304.542 164.021 304.542 164.252C304.542 164.406 304.542 164.483 304.619 164.56C304.697 164.637 304.774 164.714 304.851 164.791C304.928 164.868 305.083 164.944 305.237 164.944C305.391 165.021 305.469 165.098 305.623 165.098C306.318 165.329 306.858 165.637 307.167 165.868C307.476 166.099 307.63 166.561 307.63 167.177C307.63 167.869 307.322 168.485 306.704 168.87C306.241 169.178 305.7 169.332 305.083 169.332C304.388 169.332 303.77 169.178 303.23 168.793C303.307 168.408 303.384 168.023 303.461 167.562H303.693V167.638ZM296.05 163.02C296.513 163.02 296.822 163.02 297.053 163.02C297.208 163.02 297.517 163.02 297.903 163.02L297.825 163.944C298.443 163.174 299.138 162.866 299.833 162.866C300.45 162.866 301.068 163.097 301.454 163.636C301.686 163.867 301.763 164.175 301.84 164.406C301.917 164.714 301.917 165.098 301.917 165.56V167.177V169.409C301.763 169.409 301.608 169.409 301.377 169.409C301.145 169.409 300.991 169.409 300.836 169.409C300.759 169.409 300.605 169.409 300.373 169.409C300.142 169.409 299.987 169.409 299.91 169.409C299.91 169.332 299.91 169.332 299.91 169.255C299.91 169.178 299.91 169.178 299.91 169.101C299.91 169.024 299.91 168.947 299.91 168.947C299.91 168.87 299.91 168.87 299.91 168.793C299.91 168.639 299.91 168.331 299.91 168.023C299.91 167.715 299.91 167.408 299.91 167.254C299.91 167.177 299.91 167.023 299.91 166.792C299.91 166.638 299.91 166.407 299.91 166.253C299.91 165.637 299.833 165.098 299.755 164.714C299.601 164.329 299.292 164.098 298.829 164.098C298.366 164.098 298.057 164.329 297.903 164.714C297.748 165.098 297.671 165.714 297.671 166.484C297.671 166.715 297.671 167.023 297.671 167.408C297.671 167.792 297.671 168.177 297.671 168.562C297.671 168.947 297.671 169.255 297.671 169.486C297.594 169.486 297.439 169.486 297.208 169.486C296.976 169.486 296.822 169.486 296.745 169.486C296.667 169.486 296.513 169.486 296.281 169.486C296.05 169.486 295.895 169.486 295.818 169.486C295.818 169.409 295.818 169.332 295.818 169.178C295.818 169.024 295.818 168.87 295.818 168.793C295.818 168.639 295.818 168.331 295.818 168.023C295.818 167.715 295.818 167.408 295.818 167.177V165.637V165.098C295.818 164.868 295.818 164.56 295.818 164.252C295.818 163.944 295.818 163.636 295.818 163.482L296.05 163.02ZM290.491 165.252C290.414 165.56 290.414 165.868 290.414 166.253C290.414 168.023 290.8 168.87 291.649 168.87C291.958 168.87 292.267 168.716 292.421 168.485C292.575 168.254 292.73 167.946 292.807 167.562C292.884 167.1 292.962 166.484 292.962 165.791C292.962 165.637 292.962 165.406 292.884 165.098C292.807 163.944 292.421 163.328 291.726 163.328C291.34 163.328 291.031 163.482 290.8 163.867C290.645 164.329 290.491 164.791 290.491 165.252ZM288.406 166.33C288.406 165.329 288.715 164.483 289.333 163.867C289.642 163.559 289.951 163.328 290.414 163.174C290.877 163.02 291.263 162.943 291.726 162.943C292.189 162.943 292.653 163.02 293.039 163.174C293.502 163.328 293.811 163.559 294.12 163.867C294.66 164.483 294.969 165.252 294.969 166.176C294.969 166.869 294.814 167.408 294.583 167.946C294.351 168.485 293.965 168.87 293.425 169.178C292.962 169.486 292.344 169.64 291.649 169.64C291.031 169.64 290.414 169.486 289.951 169.255C289.487 169.024 289.101 168.639 288.792 168.177C288.561 167.485 288.406 166.946 288.406 166.33ZM286.245 159.479C286.554 159.479 286.785 159.556 287.017 159.787C287.248 160.018 287.326 160.249 287.326 160.557C287.326 160.865 287.248 161.096 287.017 161.327C286.785 161.558 286.554 161.635 286.245 161.635C285.936 161.635 285.704 161.558 285.55 161.327C285.318 161.096 285.241 160.865 285.241 160.634C285.241 160.326 285.318 160.095 285.55 159.941C285.704 159.633 285.936 159.479 286.245 159.479ZM285.241 168.408C285.241 168.254 285.241 168.023 285.241 167.792C285.241 167.485 285.241 167.331 285.241 167.177C285.241 166.176 285.318 165.483 285.318 165.175C285.318 164.868 285.318 164.483 285.318 164.021C285.318 163.559 285.318 163.251 285.241 163.02H285.318C285.55 163.02 285.859 163.02 286.245 163.02C286.476 163.02 286.785 163.02 287.171 163.02L287.094 164.714C287.017 165.252 287.017 166.099 287.017 167.254C287.017 168.023 287.017 168.716 287.094 169.332C287.017 169.332 286.785 169.332 286.554 169.332C286.322 169.332 286.09 169.332 286.013 169.332C285.936 169.332 285.782 169.332 285.55 169.332C285.318 169.332 285.164 169.332 285.087 169.332L285.241 168.408Z" fill="white"/>
<path d="M305.158 119.607C304 116.528 301.838 114.988 298.827 114.988C296.975 114.988 295.508 115.45 294.427 116.451C293.346 117.451 292.806 118.683 292.806 120.222C292.806 121.531 293.346 122.609 294.504 123.532C295.662 124.456 297.361 125.533 299.831 126.842C302.224 128.073 304.155 129.228 305.544 130.152C306.934 131.152 307.938 132.307 308.555 133.692C309.173 135.001 309.482 136.617 309.482 138.542C309.482 140.235 309.096 141.928 308.246 143.699C307.166 145.931 305.158 147.701 302.379 149.01C300.372 150.01 297.901 150.472 294.967 150.472C291.57 150.472 288.559 149.703 286.089 148.163C286.861 145.392 287.401 143.083 287.71 141.236H288.714C289.1 143.083 290.026 144.545 291.416 145.546C292.806 146.547 294.427 147.085 296.357 147.085C298.133 147.085 299.677 146.624 300.912 145.623C302.147 144.699 302.765 143.314 302.765 141.544C302.765 140.004 302.07 138.619 300.758 137.31C298.982 136.079 296.975 134.924 294.581 133.846C293.886 133.462 293.114 133 292.111 132.384C291.107 131.768 290.489 131.306 290.181 131.152C288.945 130.383 288.019 129.228 287.401 127.689C286.784 126.149 286.475 124.533 286.475 122.916C286.475 119.376 287.864 116.528 290.644 114.296C291.879 113.295 293.192 112.525 294.504 112.14C295.816 111.756 297.361 111.602 299.213 111.602C302.379 111.602 305.158 112.371 307.397 113.757C307.474 113.834 307.552 113.988 307.783 114.142C307.243 115.835 306.625 117.682 306.085 119.53H305.158V119.607ZM242.468 112.217C242.623 112.217 243.009 112.294 243.472 112.371C243.935 112.448 244.321 112.525 244.63 112.525C245.093 112.525 245.865 112.448 246.946 112.217C250.034 118.991 254.203 127.612 259.608 138.157L262.85 131.845C266.556 124.764 269.721 118.221 272.424 112.217C272.501 112.217 272.578 112.294 272.732 112.294C272.887 112.294 272.964 112.371 272.964 112.371C274.817 112.371 276.207 112.294 277.133 112.217C277.673 117.297 278.677 125.841 280.067 137.926C280.298 139.311 280.53 141.159 280.916 143.622C281.225 146.008 281.456 147.316 281.456 147.47C281.456 147.701 281.534 148.086 281.611 148.625C281.688 149.164 281.765 149.549 281.765 149.779C281.379 149.779 280.607 149.703 279.604 149.626C278.6 149.549 277.828 149.549 277.287 149.549C276.824 149.549 276.052 149.626 275.126 149.626C274.122 149.703 273.35 149.703 272.81 149.779C272.655 146.085 272.346 142.005 271.883 137.541C271.42 133.077 270.957 128.689 270.493 124.533C264.317 137.079 260.302 145.546 258.295 149.856H256.211L251.964 140.928C250.884 138.619 249.494 135.694 247.641 132.076C245.865 128.458 244.707 126.149 244.167 125.072C243.626 128.92 243.24 132.153 242.932 134.77C242.7 137.079 242.545 139.157 242.468 140.928C242.237 143.083 242.082 144.853 242.005 146.316C242.005 146.701 241.928 147.239 241.928 148.009C241.928 148.779 241.851 149.318 241.851 149.703C241.001 149.549 240.152 149.472 239.226 149.472C238.376 149.472 237.527 149.549 236.678 149.703C236.678 149.01 236.832 148.317 237.141 147.701C237.373 146.701 237.604 145.084 237.99 142.852C238.376 140.62 238.531 139.465 238.531 139.311C239.071 136.002 239.612 132.384 240.075 128.612L242.468 112.217ZM209.193 135.232H219.307C218.072 131.922 216.45 127.612 214.366 122.455C212.436 126.919 210.737 130.998 209.425 134.77L209.193 135.232ZM198.848 149.318L202.94 139.927C207.649 129.228 211.432 119.914 214.366 111.909C214.598 111.909 214.752 111.986 215.061 111.986C215.292 112.063 215.601 112.063 215.833 112.063C216.064 112.14 216.296 112.14 216.528 112.14C216.836 112.14 217.145 112.14 217.531 112.063C217.917 111.986 218.226 111.986 218.535 111.909L218.998 112.833C223.553 124.764 228.34 136.617 233.358 148.548L233.667 149.087V149.626C233.127 149.626 232.355 149.549 231.351 149.472C230.347 149.395 229.498 149.395 228.958 149.395C227.413 149.395 225.869 149.472 224.402 149.626C222.858 144.622 221.546 140.851 220.619 138.388C219.925 138.388 218.921 138.388 217.608 138.311C216.219 138.234 215.215 138.234 214.52 138.234C213.131 138.234 210.892 138.311 207.881 138.388L207.649 139.157C207.032 140.851 206.414 142.621 205.719 144.468C205.024 146.316 204.561 148.009 204.175 149.626C203.326 149.472 202.476 149.395 201.55 149.395C200.701 149.395 199.851 149.472 199.002 149.626V149.318H198.848Z" fill="white"/>
<path d="M150.903 149.087H141.947C137.238 149.087 133.686 146.623 136.465 141.851C136.774 141.312 137.16 140.774 137.469 140.235C139.708 137.079 142.873 134.462 145.962 131.845C153.219 125.687 159.627 121.223 166.112 116.528C166.266 116.451 166.421 116.297 166.575 116.22C169.509 114.218 175.917 111.755 178.928 114.988C179.623 115.758 179.468 117.143 178.851 118.067C178.387 118.76 177.538 119.375 176.843 119.837C171.13 123.994 159.472 132.615 154.608 137.387C151.675 140.235 149.976 143.698 150.208 145.931C150.208 147.316 150.594 148.548 150.903 149.087Z" fill="white"/>
<path d="M196.3 124.687C195.528 130.69 194.987 136.54 190.123 141.466C186.958 144.776 182.249 146.7 177.076 147.855C172.907 148.779 168.815 149.164 164.337 149.164C161.326 149.164 162.175 149.164 159.01 149.164C157.775 149.164 156.848 149.164 155.767 149.01C153.529 148.702 152.679 147.932 152.525 146.008C152.37 143.775 154.146 140.466 157.234 137.541C157.775 137.002 158.315 136.54 158.933 136.001C160.014 135.078 160.323 134.77 161.867 134.77C163.951 134.847 166.113 135.001 168.197 135.001L174.914 135.078C183.638 134.924 192.517 131.229 196.3 124.687Z" fill="white"/>
<path d="M171.21 112.757C177.618 108.139 183.948 103.213 191.437 100.365C192.981 99.8261 194.911 99.4412 196.533 99.7491C198.077 100.134 198.849 101.289 199.08 102.52C199.235 104.444 199.158 105.907 198.849 107.831C198.386 111.295 197.999 113.835 197.459 117.299C196.919 120.762 195.297 123.918 193.058 126.15C190.125 128.998 184.952 131.384 180.783 132.308C178.621 132.77 179.162 130.846 179.625 129.691C179.934 128.69 180.243 127.844 180.551 126.689C181.169 124.534 182.481 119.531 181.709 116.067C181.015 112.988 179.162 112.142 176.382 111.988C174.298 111.834 172.522 112.372 171.21 112.757Z" fill="white"/>
</svg>
