<svg width="445" height="270" viewBox="0 0 445 270" fill="none" xmlns="http://www.w3.org/2000/svg">
<path fill-rule="evenodd" clip-rule="evenodd" d="M95 105.36L126.177 123.336L157.738 105.42L157.738 147.614L148.739 152.713L148.739 120.878L126.142 133.704L104 120.938L104 152.713L95 147.614L95 105.36Z" fill="white"/>
<path fill-rule="evenodd" clip-rule="evenodd" d="M106.686 143.447L126.155 154.72L146.057 143.293L146.057 153.979L126.155 165.36L106.686 154.113L106.686 143.447Z" fill="white"/>
<path d="M207.738 138.112L203.197 138.112L203.197 123.282L197.227 138.112L195.258 138.112L189.288 123.282L189.288 138.112L184.779 138.112L184.779 116.931L191.098 116.931L196.243 129.729L201.387 116.931L207.738 116.931L207.738 138.112ZM221.98 138.493C215.597 138.493 210.929 133.92 210.929 127.537C210.929 121.154 215.597 116.582 221.98 116.582C228.395 116.582 233.063 121.154 233.063 127.537C233.063 133.92 228.395 138.493 221.98 138.493ZM221.98 134.492C225.886 134.492 228.427 131.475 228.427 127.537C228.427 123.568 225.886 120.583 221.98 120.583C218.074 120.583 215.565 123.568 215.565 127.537C215.565 131.475 218.074 134.492 221.98 134.492ZM255.186 138.112L250.835 138.112L240.737 124.298L240.737 138.112L236.227 138.112L236.227 116.931L240.864 116.931L250.677 130.237L250.677 116.931L255.186 116.931L255.186 138.112ZM263.872 138.112L259.362 138.112L259.362 116.931L263.872 116.931L263.872 138.112ZM283.066 138.112L268.077 138.112L268.077 116.931L283.066 116.931L283.066 120.9L272.586 120.9L272.586 125.378L282.843 125.378L282.843 129.348L272.586 129.348L272.586 134.143L283.066 134.143L283.066 138.112ZM286.972 138.112L286.972 116.931L289.608 116.931L289.608 135.762L299.452 135.762L299.452 138.112L286.972 138.112ZM303.16 138.112L303.16 116.931L305.796 116.931L305.796 138.112L303.16 138.112ZM325.747 138.112L313.394 121.218L313.394 138.112L310.758 138.112L310.758 116.931L313.457 116.931L325.652 133.476L325.652 116.931L328.288 116.931L328.288 138.112L325.747 138.112ZM346.04 138.112L338.005 128.585L335.878 130.999L335.878 138.112L333.242 138.112L333.242 116.931L335.878 116.931L335.878 127.887L345.246 116.931L348.548 116.931L339.72 126.998L349.311 138.112L346.04 138.112Z" fill="white"/>
</svg>
