<svg width="444" height="270" viewBox="0 0 444 270" fill="none" xmlns="http://www.w3.org/2000/svg">
<path d="M319.557 134.732L319.039 137.163H312.497L312.919 135.11C313.457 132.472 311.441 130.003 308.748 130.003H291.468L292.759 123.535H310.439C316.341 123.535 320.754 128.954 319.557 134.732Z" fill="white"/>
<path fill-rule="evenodd" clip-rule="evenodd" d="M311.299 143.065L311.106 144.012C311.027 143.44 310.479 143.105 309.786 143.105H294.867C293.621 143.105 292.542 143.685 292.27 144.902L291.257 149.446C290.996 150.608 291.882 151.713 293.073 151.713H307.329C308.575 151.713 309.654 150.848 309.926 149.632L310.333 147.806L309.89 149.981C309.637 151.219 308.548 152.109 307.284 152.109H287.067C286.591 155.3 289.063 158.208 292.33 158.208H289.449C286.078 158.208 283.557 155.114 284.239 151.813L285.907 143.729C285.953 143.508 286.005 143.293 286.067 143.083L287.813 143.065H311.299Z" fill="white"/>
<path fill-rule="evenodd" clip-rule="evenodd" d="M317.829 143.065L316.101 151.408L316.007 151.841C315.462 154.476 313.657 156.581 311.299 157.581C311.117 157.658 310.932 157.727 310.746 157.791C310.37 157.918 309.983 158.018 309.587 158.087C309.586 158.086 309.584 158.086 309.583 158.087C309.469 158.107 309.355 158.124 309.24 158.14C308.897 158.186 308.545 158.208 308.191 158.208H292.327C289.06 158.208 286.588 155.3 287.065 152.109H307.281C308.545 152.109 309.634 151.219 309.887 149.981L310.33 147.806L311.082 144.441C311.116 144.287 311.122 144.143 311.103 144.012L311.297 143.065H317.829Z" fill="white"/>
<path d="M237.618 134.814L237.198 136.921C235.205 136.839 233.105 136.73 230.922 136.587L231.211 135.183C231.755 132.542 229.739 130.068 227.043 130.068H208.382L209.656 123.684H228.488C234.359 123.684 238.767 129.056 237.618 134.814Z" fill="white"/>
<path d="M235.808 143.887L232.921 158.361H226.437L229.368 144.129C231.64 144.039 233.789 143.959 235.808 143.887Z" fill="white"/>
<path d="M213.229 134.837C211.363 134.587 209.478 134.31 207.582 134.009L208.184 131.063C210.614 131.063 212.597 132.691 213.229 134.837Z" fill="white"/>
<path d="M211.794 144.898L209.04 158.36H202.597L205.286 145.222C207.509 145.108 209.68 145.001 211.794 144.898Z" fill="white"/>
<path d="M263.927 130.153L253.578 130.106L252.089 137.095H247.872C247.133 137.105 246.354 137.111 245.538 137.111L247.037 130.077L241.517 130.051L242.961 123.512L248.431 123.536L250.812 112.36H257.359L254.972 123.566L258.804 123.583C262.236 123.599 264.748 126.82 263.927 130.153Z" fill="white"/>
<path d="M259.804 151.894L258.426 158.356H252.517C246.594 158.356 242.177 152.899 243.411 147.107L244.16 143.595C246.795 143.519 249.005 143.467 250.742 143.433L250.036 146.751C249.471 149.4 251.491 151.894 254.198 151.894H259.804Z" fill="white"/>
<path d="M272.045 143.211L268.907 158.358H262.359L265.568 143.278L272.045 143.211Z" fill="white"/>
<path d="M289.045 123.535L287.678 129.955H280.205C277.052 129.955 274.332 132.17 273.693 135.258L273.311 137.097H266.884L268.201 130.907C269.116 126.608 272.913 123.535 277.307 123.535H289.045Z" fill="white"/>
<path fill-rule="evenodd" clip-rule="evenodd" d="M203.636 133.224L203.613 133.341C200.995 132.875 198.372 132.357 195.761 131.78C195.774 131.796 195.785 131.812 195.797 131.827C195.025 130.832 193.818 130.18 192.436 130.18H189.132C184.705 129.013 180.377 127.662 176.266 126.105C174.689 125.507 173.116 124.918 171.552 124.34C172.528 123.916 173.602 123.684 174.722 123.684H195.809C200.844 123.684 204.621 128.289 203.636 133.224Z" fill="white"/>
<path fill-rule="evenodd" clip-rule="evenodd" d="M201.201 145.435L199.904 151.94C199.16 155.672 195.883 158.36 192.078 158.36H170.989C165.956 158.36 162.179 153.755 163.164 148.818L163.351 147.88C165.497 147.687 167.709 147.503 169.987 147.332C169.988 147.305 169.991 147.278 169.994 147.251C169.769 149.709 171.708 151.886 174.233 151.886H190.001C192.054 151.886 193.815 150.421 194.186 148.403L194.669 145.792C196.888 145.667 199.067 145.548 201.201 145.435Z" fill="white"/>
<path fill-rule="evenodd" clip-rule="evenodd" d="M273.315 137.096L272.05 143.211L265.573 143.278L266.888 137.096H273.315Z" fill="white"/>
<path fill-rule="evenodd" clip-rule="evenodd" d="M252.09 137.096L250.739 143.434C249.002 143.469 246.792 143.521 244.157 143.597L245.539 137.111C246.355 137.111 247.133 137.106 247.872 137.096H252.09Z" fill="white"/>
<path d="M159.046 148.293L157.039 158.358H150.556L152.479 149.018C154.589 148.766 156.778 148.522 159.046 148.293Z" fill="white"/>
<path d="M118.025 155.516L117.443 158.36H111L111.049 158.125C112.409 157.406 114.73 156.504 118.025 155.516Z" fill="white"/>
<path d="M138.636 150.979L137.125 158.359H130.684L131.948 152.184C134.031 151.777 136.259 151.373 138.636 150.979Z" fill="white"/>
<path fill-rule="evenodd" clip-rule="evenodd" d="M152.606 123.682H118.082L116.808 130.066H151.162C153.857 130.066 155.874 132.54 155.33 135.181L152.48 149.017C154.59 148.765 156.779 148.521 159.047 148.292L161.736 134.812C162.885 129.054 158.479 123.682 152.606 123.682ZM136.27 131.062L131.947 152.183H131.948C134.031 151.776 136.258 151.371 138.636 150.977L141.42 137.373C142.087 134.114 139.596 131.062 136.27 131.062ZM116.589 131.062L111.051 158.123C112.412 157.404 114.732 156.502 118.028 155.514L121.74 137.373C122.406 134.114 119.917 131.062 116.589 131.062Z" fill="white"/>
<path fill-rule="evenodd" clip-rule="evenodd" d="M213.44 136.148C213.44 136.115 213.439 136.081 213.436 136.047C213.435 136.003 213.432 135.959 213.427 135.916C213.425 135.872 213.42 135.829 213.416 135.785C213.412 135.741 213.408 135.698 213.402 135.655C213.398 135.613 213.392 135.57 213.383 135.527C213.378 135.49 213.372 135.455 213.366 135.418C213.359 135.369 213.349 135.321 213.339 135.272C213.322 135.188 213.302 135.104 213.281 135.022C213.272 134.983 213.261 134.946 213.251 134.909C213.25 134.902 213.248 134.895 213.245 134.888C213.241 134.871 213.235 134.855 213.231 134.838H213.23C211.363 134.588 209.479 134.312 207.583 134.01L205.288 145.221C207.511 145.107 209.682 145.001 211.796 144.898L213.335 137.375C213.348 137.308 213.361 137.241 213.372 137.173C213.383 137.106 213.393 137.039 213.402 136.972C213.413 136.882 213.423 136.794 213.429 136.706C213.435 136.619 213.439 136.532 213.442 136.445V136.44C213.442 136.393 213.442 136.346 213.442 136.299C213.442 136.249 213.442 136.198 213.439 136.148H213.44ZM230.924 136.588L229.371 144.128C231.642 144.038 233.792 143.959 235.81 143.886L237.2 136.921C235.207 136.84 233.107 136.73 230.924 136.588Z" fill="white"/>
<path fill-rule="evenodd" clip-rule="evenodd" d="M325.38 143.102H287.803L286.063 143.082C286.106 142.935 286.151 142.793 286.2 142.652C286.213 142.616 286.225 142.581 286.238 142.545C286.279 142.43 286.325 142.316 286.371 142.203C286.372 142.203 286.372 142.202 286.372 142.202C286.419 142.09 286.469 141.979 286.52 141.869C286.546 141.815 286.571 141.761 286.598 141.707C286.62 141.667 286.64 141.627 286.659 141.587C286.695 141.52 286.731 141.456 286.768 141.391C286.796 141.339 286.826 141.288 286.856 141.237C286.886 141.186 286.917 141.136 286.948 141.086C286.98 141.036 287.011 140.986 287.044 140.938C287.075 140.888 287.108 140.84 287.142 140.793C287.21 140.693 287.282 140.595 287.354 140.5C287.388 140.457 287.421 140.414 287.455 140.373C287.571 140.229 287.69 140.09 287.815 139.956C287.848 139.92 287.881 139.886 287.914 139.852C288.003 139.759 288.094 139.67 288.188 139.581C288.262 139.512 288.339 139.443 288.416 139.376C288.507 139.297 288.603 139.22 288.698 139.144C288.746 139.106 288.795 139.069 288.843 139.033C288.927 138.969 289.013 138.908 289.101 138.847C289.114 138.837 289.126 138.828 289.141 138.82C289.188 138.787 289.236 138.756 289.283 138.723C289.492 138.588 289.707 138.461 289.929 138.343C289.979 138.316 290.03 138.289 290.082 138.263C290.113 138.246 290.146 138.231 290.177 138.215C290.222 138.192 290.269 138.169 290.316 138.148C290.691 137.97 291.081 137.816 291.485 137.687C291.535 137.67 291.585 137.654 291.635 137.64C291.77 137.597 291.906 137.559 292.046 137.523C292.109 137.506 292.171 137.49 292.234 137.476C292.298 137.46 292.361 137.446 292.425 137.432C292.489 137.418 292.553 137.403 292.617 137.391C292.664 137.381 292.712 137.371 292.761 137.362C292.813 137.352 292.866 137.342 292.919 137.334C292.98 137.322 293.042 137.312 293.104 137.302C293.158 137.294 293.212 137.285 293.267 137.278C293.377 137.261 293.488 137.247 293.599 137.236C293.664 137.227 293.73 137.22 293.797 137.214C293.864 137.207 293.931 137.201 293.999 137.196C294.025 137.193 294.052 137.191 294.079 137.19C294.187 137.181 294.295 137.174 294.405 137.169C294.472 137.166 294.54 137.163 294.608 137.161C294.665 137.159 294.721 137.157 294.776 137.157C294.857 137.156 294.94 137.154 295.021 137.154H312.5H319.052H326.284H326.353L326.363 137.095L326.975 133.863L333.498 140.117L324.81 146.213L325.38 143.102Z" fill="white"/>
<path fill-rule="evenodd" clip-rule="evenodd" d="M176.264 126.105C174.687 125.507 173.114 124.918 171.55 124.34C171.541 124.344 171.531 124.348 171.523 124.351C171.459 124.38 171.395 124.408 171.332 124.438C171.259 124.472 171.188 124.508 171.117 124.543C171.046 124.579 170.976 124.616 170.906 124.654C170.841 124.69 170.775 124.726 170.711 124.764C170.556 124.854 170.404 124.949 170.256 125.049C170.203 125.084 170.15 125.121 170.099 125.158C170.039 125.2 169.981 125.242 169.923 125.286C169.723 125.436 169.533 125.594 169.349 125.763C169.294 125.812 169.239 125.863 169.185 125.916C168.972 126.119 168.771 126.336 168.582 126.563C168.549 126.603 168.516 126.643 168.485 126.683C168.479 126.689 168.474 126.696 168.469 126.703C168.437 126.744 168.405 126.784 168.374 126.825C168.338 126.869 168.304 126.915 168.273 126.96C168.242 127.003 168.21 127.046 168.18 127.089C168.176 127.094 168.172 127.1 168.168 127.107C168.138 127.151 168.108 127.195 168.078 127.239C168.015 127.333 167.954 127.429 167.896 127.526C167.866 127.574 167.837 127.624 167.809 127.672C167.752 127.772 167.696 127.872 167.644 127.973C167.618 128.022 167.592 128.074 167.567 128.125C167.541 128.176 167.517 128.229 167.491 128.28C167.464 128.338 167.437 128.397 167.412 128.455C167.369 128.555 167.328 128.654 167.288 128.756C167.251 128.851 167.215 128.946 167.182 129.043C167.096 129.289 167.022 129.543 166.96 129.8C166.95 129.84 166.942 129.88 166.932 129.921C166.919 129.983 166.906 130.042 166.894 130.104L163.348 147.88C165.494 147.686 167.706 147.503 169.984 147.332C169.985 147.305 169.988 147.278 169.991 147.251C169.997 147.187 170.004 147.123 170.014 147.057C170.012 147.056 170.014 147.053 170.015 147.05C170.022 146.986 170.032 146.922 170.045 146.858L172.479 133.664C172.852 131.645 174.613 130.18 176.666 130.18H189.13C184.703 129.013 180.375 127.662 176.264 126.105ZM195.759 131.78C195.772 131.796 195.783 131.812 195.795 131.827C195.816 131.854 195.837 131.881 195.856 131.909C195.877 131.936 195.897 131.963 195.916 131.991C195.995 132.102 196.068 132.217 196.135 132.336C196.149 132.36 196.162 132.384 196.176 132.408C196.213 132.476 196.249 132.546 196.28 132.616C196.294 132.644 196.307 132.673 196.32 132.701C196.337 132.736 196.351 132.77 196.365 132.805C196.377 132.831 196.387 132.858 196.397 132.885C196.415 132.928 196.431 132.97 196.445 133.013C196.461 133.056 196.475 133.097 196.488 133.14C196.496 133.163 196.503 133.185 196.509 133.208C196.523 133.255 196.538 133.302 196.549 133.349C196.563 133.402 196.576 133.456 196.589 133.509C196.603 133.568 196.615 133.628 196.624 133.689C196.63 133.719 196.634 133.749 196.639 133.779C196.642 133.788 196.643 133.796 196.643 133.805C196.649 133.836 196.653 133.866 196.656 133.897C196.663 133.94 196.667 133.983 196.67 134.027C196.673 134.054 196.676 134.081 196.677 134.108C196.681 134.158 196.686 134.209 196.686 134.26C196.689 134.316 196.69 134.373 196.69 134.428C196.69 134.684 196.667 134.945 196.619 135.208L194.666 145.792C196.885 145.667 199.064 145.548 201.198 145.434L203.611 133.341C200.993 132.875 198.37 132.357 195.759 131.78Z" fill="white"/>
</svg>
