<svg width="444" height="270" viewBox="0 0 444 270" fill="none" xmlns="http://www.w3.org/2000/svg">
<path d="M264.189 123.484L252.926 123.484L264.797 154.367H275.135L264.189 123.484Z" fill="white"/>
<path d="M276.868 123.484L288.13 123.484L276.26 154.367H265.921L276.868 123.484Z" fill="white"/>
<path d="M301.198 123.484L312.46 123.484L305.332 140.987H294.994L301.198 123.484Z" fill="white"/>
<path d="M287.968 123.484L276.706 123.484L288.577 154.367H298.915L287.968 123.484Z" fill="white"/>
<path d="M159.206 123.484H170.317L153.806 161.361L141.641 161.361L159.206 123.484Z" fill="white"/>
<path d="M142.112 123.482L131 123.482L139.222 141.292H150.776L142.112 123.482Z" fill="white"/>
<path d="M209.456 109.36H197.9V154.974H209.456V109.36Z" fill="white"/>
<path d="M224.05 109.36H212.495V154.974H224.05V109.36Z" fill="white"/>
<path fill-rule="evenodd" clip-rule="evenodd" d="M241.08 154.974C251.157 154.974 259.326 147.35 259.326 137.945C259.326 128.54 251.157 120.916 241.08 120.916C231.003 120.916 222.835 128.54 222.835 137.945C222.835 147.35 231.003 154.974 241.08 154.974ZM241.08 145.243C245.447 145.243 248.987 141.976 248.987 137.945C248.987 133.914 245.447 130.647 241.08 130.647C236.714 130.647 233.174 133.914 233.174 137.945C233.174 141.976 236.714 145.243 241.08 145.243Z" fill="white"/>
<path fill-rule="evenodd" clip-rule="evenodd" d="M175.397 142.204H198.508V132.777C197.494 129.432 192.669 122.742 181.479 122.742C170.288 122.742 165.463 132.473 164.45 137.338C164.45 143.319 167.855 155.28 181.479 155.28C195.102 155.28 198.508 148.387 198.508 144.941H187.864C187.56 145.65 185.857 147.069 181.479 147.069C177.1 147.069 175.6 143.826 175.397 142.204ZM175.093 136.122H188.777C188.675 134.5 187.195 131.257 182.087 131.257C176.978 131.257 175.295 134.5 175.093 136.122Z" fill="white"/>
</svg>
