<svg width="444" height="270" viewBox="0 0 444 270" fill="none" xmlns="http://www.w3.org/2000/svg">
<g filter="url(#filter0_d_7_297)">
<path d="M264.189 123.484L252.926 123.484L264.797 154.367H275.135L264.189 123.484Z" fill="white"/>
<path d="M276.868 123.484L288.131 123.484L276.26 154.367H265.922L276.868 123.484Z" fill="white"/>
<path d="M301.198 123.484L312.46 123.484L305.333 140.987H294.994L301.198 123.484Z" fill="white"/>
<path d="M287.968 123.484L276.705 123.484L288.576 154.367H298.914L287.968 123.484Z" fill="white"/>
<path d="M159.205 123.484H170.317L153.805 161.361L141.641 161.361L159.205 123.484Z" fill="white"/>
<path d="M142.112 123.482L131 123.482L139.222 141.292H150.776L142.112 123.482Z" fill="white"/>
<path d="M209.456 109.36H197.9V154.974H209.456V109.36Z" fill="white"/>
<path d="M224.051 109.36H212.496V154.974H224.051V109.36Z" fill="white"/>
<path fill-rule="evenodd" clip-rule="evenodd" d="M241.079 154.974C251.156 154.974 259.325 147.35 259.325 137.945C259.325 128.54 251.156 120.916 241.079 120.916C231.002 120.916 222.834 128.54 222.834 137.945C222.834 147.35 231.002 154.974 241.079 154.974ZM241.079 145.243C245.446 145.243 248.986 141.976 248.986 137.945C248.986 133.914 245.446 130.647 241.079 130.647C236.713 130.647 233.173 133.914 233.173 137.945C233.173 141.976 236.713 145.243 241.079 145.243Z" fill="white"/>
<path fill-rule="evenodd" clip-rule="evenodd" d="M175.396 142.204H198.507V132.777C197.493 129.432 192.669 122.742 181.478 122.742C170.288 122.742 165.463 132.473 164.449 137.338C164.449 143.319 167.855 155.28 181.478 155.28C195.101 155.28 198.507 148.387 198.507 144.941H187.864C187.56 145.65 185.857 147.069 181.478 147.069C177.099 147.069 175.599 143.826 175.396 142.204ZM175.092 136.122H188.776C188.675 134.5 187.195 131.257 182.086 131.257C176.978 131.257 175.295 134.5 175.092 136.122Z" fill="white"/>
</g>
<defs>
<filter id="filter0_d_7_297" x="129.093" y="109.36" width="185.274" height="55.8145" filterUnits="userSpaceOnUse" color-interpolation-filters="sRGB">
<feFlood flood-opacity="0" result="BackgroundImageFix"/>
<feColorMatrix in="SourceAlpha" type="matrix" values="0 0 0 0 0 0 0 0 0 0 0 0 0 0 0 0 0 0 127 0" result="hardAlpha"/>
<feOffset dy="1.907"/>
<feGaussianBlur stdDeviation="0.9535"/>
<feComposite in2="hardAlpha" operator="out"/>
<feColorMatrix type="matrix" values="0 0 0 0 0 0 0 0 0 0 0 0 0 0 0 0 0 0 0.44 0"/>
<feBlend mode="normal" in2="BackgroundImageFix" result="effect1_dropShadow_7_297"/>
<feBlend mode="normal" in="SourceGraphic" in2="effect1_dropShadow_7_297" result="shape"/>
</filter>
</defs>
</svg>
