<svg width="214" height="214" viewBox="0 0 214 214" fill="none" xmlns="http://www.w3.org/2000/svg">
<mask id="path-1-inside-1_2659_1999" fill="white">
<path d="M33.5361 89.9424H179.883V0H213.419V213.41H179.883V123.479H33.5361V213.41H0V0H33.5361V89.9424Z"/>
</mask>
<path d="M33.5361 89.9424H179.883V0H213.419V213.41H179.883V123.479H33.5361V213.41H0V0H33.5361V89.9424Z" fill="black"/>
<path d="M33.5361 89.9424H32.5361V90.9424H33.5361V89.9424ZM179.883 89.9424V90.9424H180.883V89.9424H179.883ZM179.883 0V-1H178.883V0H179.883ZM213.419 0H214.419V-1H213.419V0ZM213.419 213.41V214.41H214.419V213.41H213.419ZM179.883 213.41H178.883V214.41H179.883V213.41ZM179.883 123.479H180.883V122.479H179.883V123.479ZM33.5361 123.479V122.479H32.5361V123.479H33.5361ZM33.5361 213.41V214.41H34.5361V213.41H33.5361ZM0 213.41H-1V214.41H0V213.41ZM0 0V-1H-1V0H0ZM33.5361 0H34.5361V-1H33.5361V0ZM33.5361 89.9424V90.9424H179.883V89.9424V88.9424H33.5361V89.9424ZM179.883 89.9424H180.883V0H179.883H178.883V89.9424H179.883ZM179.883 0V1H213.419V0V-1H179.883V0ZM213.419 0H212.419V213.41H213.419H214.419V0H213.419ZM213.419 213.41V212.41H179.883V213.41V214.41H213.419V213.41ZM179.883 213.41H180.883V123.479H179.883H178.883V213.41H179.883ZM179.883 123.479V122.479H33.5361V123.479V124.479H179.883V123.479ZM33.5361 123.479H32.5361V213.41H33.5361H34.5361V123.479H33.5361ZM33.5361 213.41V212.41H0V213.41V214.41H33.5361V213.41ZM0 213.41H1V0H0H-1V213.41H0ZM0 0V1H33.5361V0V-1H0V0ZM33.5361 0H32.5361V89.9424H33.5361H34.5361V0H33.5361Z" fill="white" mask="url(#path-1-inside-1_2659_1999)"/>
</svg>
