<svg width="215" height="216" viewBox="0 0 215 216" fill="none" xmlns="http://www.w3.org/2000/svg">
<path d="M213.91 92.3701L214.328 92.6452L214.41 92.52V92.3701H213.91ZM194.094 122.449V122.949H194.363L194.511 122.724L194.094 122.449ZM155.223 122.449L154.794 122.192L154.34 122.949H155.223V122.449ZM180.374 80.5293L180.803 80.7865L180.874 80.6678V80.5293H180.374ZM180.374 34.0361H180.874V33.5361H180.374V34.0361ZM34.0361 34.0361V33.5361H33.5361V34.0361H34.0361ZM34.0361 90.4424H33.5361V90.9424H34.0361V90.4424ZM132.341 90.4424L132.758 90.167L132.61 89.9424H132.341V90.4424ZM213.803 213.916V214.416H214.732L214.22 213.641L213.803 213.916ZM173.498 213.916L173.081 214.192L173.229 214.416H173.498V213.916ZM114.049 123.979L114.466 123.703L114.318 123.479H114.049V123.979ZM34.0361 123.979V123.479H33.5361V123.979H34.0361ZM34.0361 214.673V215.173H34.5361V214.673H34.0361ZM0.5 214.673H0V215.173H0.5V214.673ZM0.5 0.5V0H0V0.5H0.5ZM213.91 0.5H214.41V0H213.91V0.5ZM213.91 92.3701L213.493 92.095L193.676 122.174L194.094 122.449L194.511 122.724L214.328 92.6452L213.91 92.3701ZM194.094 122.449V121.949H155.223V122.449V122.949H194.094V122.449ZM155.223 122.449L155.651 122.706L180.803 80.7865L180.374 80.5293L179.945 80.2721L154.794 122.192L155.223 122.449ZM180.374 80.5293H180.874V34.0361H180.374H179.874V80.5293H180.374ZM180.374 34.0361V33.5361H34.0361V34.0361V34.5361H180.374V34.0361ZM34.0361 34.0361H33.5361V90.4424H34.0361H34.5361V34.0361H34.0361ZM34.0361 90.4424V90.9424H132.341V90.4424V89.9424H34.0361V90.4424ZM132.341 90.4424L131.923 90.7177L213.385 214.191L213.803 213.916L214.22 213.641L132.758 90.167L132.341 90.4424ZM213.803 213.916V213.416H173.498V213.916V214.416H213.803V213.916ZM173.498 213.916L173.915 213.64L114.466 123.703L114.049 123.979L113.632 124.254L173.081 214.192L173.498 213.916ZM114.049 123.979V123.479H34.0361V123.979V124.479H114.049V123.979ZM34.0361 123.979H33.5361V214.673H34.0361H34.5361V123.979H34.0361ZM34.0361 214.673V214.173H0.5V214.673V215.173H34.0361V214.673ZM0.5 214.673H1V0.5H0.5H0V214.673H0.5ZM0.5 0.5V1H213.91V0.5V0H0.5V0.5ZM213.91 0.5H213.41V92.3701H213.91H214.41V0.5H213.91Z" fill="white"/>
</svg>
